<svg width="21" height="21" viewBox="0 0 21 21" fill="none" xmlns="http://www.w3.org/2000/svg">
    <path d="M18.375 10.5V16.625C18.375 17.0891 18.1906 17.5342 17.8624 17.8624C17.5342 18.1906 17.0891 18.375 16.625 18.375H4.375C3.91087 18.375 3.46575 18.1906 3.13756 17.8624C2.80937 17.5342 2.625 17.0891 2.625 16.625V10.5H18.375ZM14 2.625C14.2321 2.625 14.4546 2.71719 14.6187 2.88128C14.7828 3.04538 14.875 3.26794 14.875 3.5V4.375H16.625C17.0891 4.375 17.5342 4.55937 17.8624 4.88756C18.1906 5.21575 18.375 5.66087 18.375 6.125V8.75H2.625V6.125C2.625 5.66087 2.80937 5.21575 3.13756 4.88756C3.46575 4.55937 3.91087 4.375 4.375 4.375H6.125V3.5C6.125 3.26794 6.21719 3.04538 6.38128 2.88128C6.54538 2.71719 6.76794 2.625 7 2.625C7.23206 2.625 7.45462 2.71719 7.61872 2.88128C7.78281 3.04538 7.875 3.26794 7.875 3.5V4.375H13.125V3.5C13.125 3.26794 13.2172 3.04538 13.3813 2.88128C13.5454 2.71719 13.7679 2.625 14 2.625Z" fill="white"/>
</svg>
