<svg width="28" height="28" viewBox="0 0 28 28" fill="none" xmlns="http://www.w3.org/2000/svg">
    <path d="M16.3253 17.5H16.3335M11.6668 17.5H11.675M5.8335 17.5C5.8335 16.4275 6.04473 15.3656 6.45515 14.3748C6.86556 13.3839 7.46711 12.4836 8.22546 11.7253C8.9838 10.967 9.88409 10.3654 10.8749 9.95499C11.8657 9.54457 12.9277 9.33334 14.0002 9.33334C15.0726 9.33334 16.1346 9.54457 17.1254 9.95499C18.1162 10.3654 19.0165 10.967 19.7749 11.7253C20.5332 12.4836 21.1348 13.3839 21.5452 14.3748C21.9556 15.3656 22.1668 16.4275 22.1668 17.5C22.1668 19.6659 21.3064 21.7432 19.7749 23.2747C18.2433 24.8063 16.1661 25.6667 14.0002 25.6667C11.8342 25.6667 9.757 24.8063 8.22546 23.2747C6.69391 21.7432 5.8335 19.6659 5.8335 17.5Z" stroke="#014C16" stroke-width="1.5" stroke-linecap="round" stroke-linejoin="round"/>
    <path d="M19.25 11.0833V7.58334C19.25 6.19095 18.6969 4.85559 17.7123 3.87103C16.7277 2.88646 15.3924 2.33334 14 2.33334C12.6076 2.33334 11.2723 2.88646 10.2877 3.87103C9.30312 4.85559 8.75 6.19095 8.75 7.58334V11.0833" stroke="#014C16" stroke-width="1.5" stroke-linecap="round" stroke-linejoin="round"/>
</svg>
