<svg width="34" height="34" viewBox="0 0 34 34" fill="none" xmlns="http://www.w3.org/2000/svg">
    <path d="M3.896 9.91666L5.70933 8.14582L18.7852 21.25L28.3335 30.77L26.5343 32.5833L22.2843 28.3333H5.66683V24.0833C5.66683 21.4483 9.36433 19.72 12.8777 18.9267L3.896 9.91666ZM28.3335 24.0833V27.1717L25.6418 24.48V24.0833C25.6418 23.715 24.9335 23.1625 23.8002 22.6667L19.8335 18.6717C23.6727 19.3092 28.3335 21.1225 28.3335 24.0833ZM8.3585 24.0833V25.6417H19.5927L15.1868 21.25C11.6027 21.675 8.3585 23.3042 8.3585 24.0833ZM17.0002 5.66666C18.5031 5.66666 19.9444 6.26368 21.0071 7.32638C22.0698 8.38909 22.6668 9.83043 22.6668 11.3333C22.6668 14.0958 20.6835 16.405 18.0627 16.9008L11.4327 10.2708C11.6809 8.97594 12.3726 7.80798 13.3886 6.96774C14.4047 6.12749 15.6817 5.66744 17.0002 5.66666ZM17.0002 8.49999C16.2487 8.49999 15.528 8.7985 14.9967 9.32985C14.4653 9.86121 14.1668 10.5819 14.1668 11.3333C14.1668 12.0848 14.4653 12.8054 14.9967 13.3368C15.528 13.8681 16.2487 14.1667 17.0002 14.1667C17.7516 14.1667 18.4723 13.8681 19.0036 13.3368C19.535 12.8054 19.8335 12.0848 19.8335 11.3333C19.8335 10.5819 19.535 9.86121 19.0036 9.32985C18.4723 8.7985 17.7516 8.49999 17.0002 8.49999Z" fill="#014C16"/>
</svg>
