<svg width="25" height="23" viewBox="0 0 25 23" fill="none" xmlns="http://www.w3.org/2000/svg">
<path d="M14.8438 3.73926H10.1562C6.84169 3.73926 5.18441 3.73926 4.1547 4.67802C3.125 5.61678 3.125 7.12769 3.125 10.1495V12.2863C3.125 15.3081 3.125 16.819 4.1547 17.7578C5.18441 18.6965 6.84169 18.6965 10.1562 18.6965H14.8438C18.1583 18.6965 19.8156 18.6965 20.8453 17.7578C21.875 16.819 21.875 15.3081 21.875 12.2863V10.1495C21.875 7.12769 21.875 5.61678 20.8453 4.67802C19.8156 3.73926 18.1583 3.73926 14.8438 3.73926Z" stroke="#014C16" stroke-width="2"/>
<path d="M7.29163 7.47864H10.4166" stroke="#014C16" stroke-width="2" stroke-linecap="round"/>
<path d="M20.0053 14.9573H17.4947C16.6779 14.9573 16.2696 14.9573 15.9939 14.7329C15.9409 14.6898 15.8924 14.6414 15.8493 14.5884C15.625 14.3127 15.625 13.9044 15.625 13.0876C15.625 12.2709 15.625 11.8625 15.8493 11.5868C15.8924 11.5338 15.9409 11.4854 15.9939 11.4423C16.2696 11.218 16.6779 11.218 17.4947 11.218H20.0053C20.8221 11.218 21.2304 11.218 21.5061 11.4423C21.5591 11.4854 21.6076 11.5338 21.6507 11.5868C21.875 11.8625 21.875 12.2709 21.875 13.0876C21.875 13.9044 21.875 14.3127 21.6507 14.5884C21.6076 14.6414 21.5591 14.6898 21.5061 14.7329C21.2304 14.9573 20.8221 14.9573 20.0053 14.9573Z" stroke="#014C16" stroke-width="2"/>
</svg>
