<svg width="20" height="20" viewBox="0 0 20 20" fill="none" xmlns="http://www.w3.org/2000/svg">
    <g clip-path="url(#clip0_113_266)">
        <path fill-rule="evenodd" clip-rule="evenodd" d="M13.8699 0.80501C14.3425 0.356286 14.9717 0.109875 15.6234 0.118281C16.2751 0.126686 16.8977 0.389244 17.3586 0.85001L19.1499 2.64126C19.6105 3.10234 19.8728 3.72507 19.881 4.37674C19.8892 5.02842 19.6425 5.65752 19.1936 6.13001L18.6774 6.67376L8.5899 17.9175C8.53129 17.9828 8.4596 18.035 8.37949 18.0708C8.29937 18.1065 8.21263 18.125 8.1249 18.125H4.3749C4.27294 18.1251 4.17252 18.1002 4.0824 18.0525L3.5674 18.5675C3.50925 18.6255 3.44024 18.6715 3.36431 18.7028C3.28838 18.7341 3.20703 18.7502 3.1249 18.75H0.624898C0.501122 18.7502 0.380068 18.7137 0.277081 18.645C0.174095 18.5764 0.0938143 18.4787 0.0464174 18.3643C-0.000979486 18.25 -0.0133584 18.1242 0.0108501 18.0028C0.0350586 17.8814 0.0947642 17.7699 0.182398 17.6825L1.9474 15.9175C1.89974 15.8274 1.87485 15.727 1.8749 15.625V11.875C1.87491 11.7873 1.8934 11.7005 1.92915 11.6204C1.9649 11.5403 2.01711 11.4686 2.0824 11.41L13.3261 1.32251L13.8699 0.80501ZM13.7261 2.64251L3.40865 11.9L8.0999 16.5913L17.3574 6.27376L13.7261 2.64251ZM18.2074 5.35501L18.2874 5.27001C18.5121 5.03382 18.6357 4.71918 18.6317 4.39319C18.6277 4.0672 18.4965 3.75566 18.2661 3.52501L16.4749 1.73376C16.2444 1.50319 15.933 1.37179 15.607 1.36759C15.281 1.36339 14.9663 1.48671 14.7299 1.71126L14.6449 1.79251L18.2074 5.35501ZM6.61615 16.875L3.1249 13.3838V15.3663L4.63365 16.875H6.61615Z" fill="#014C16"/>
    </g>
    <defs>
        <clipPath id="clip0_113_266">
            <rect width="20" height="20" fill="white"/>
        </clipPath>
    </defs>
</svg>
