<svg width="38" height="15" viewBox="0 0 38 15" fill="none" xmlns="http://www.w3.org/2000/svg">
    <path d="M12.834 13.1C12.006 13.532 11.142 13.844 10.242 14.036C9.342 14.228 8.424 14.324 7.488 14.324C6.492 14.324 5.574 14.168 4.734 13.856C3.894 13.544 3.168 13.1 2.556 12.524C1.944 11.936 1.464 11.228 1.116 10.4C0.78 9.572 0.612 8.648 0.612 7.628C0.612 6.608 0.78 5.684 1.116 4.856C1.464 4.028 1.944 3.326 2.556 2.75C3.168 2.162 3.894 1.712 4.734 1.4C5.574 1.088 6.492 0.932 7.488 0.932C8.508 0.932 9.444 1.058 10.296 1.31C11.16 1.55 11.916 1.97 12.564 2.57L10.584 4.73C10.2 4.334 9.768 4.034 9.288 3.83C8.808 3.626 8.208 3.524 7.488 3.524C6.888 3.524 6.342 3.626 5.85 3.83C5.37 4.034 4.956 4.322 4.608 4.694C4.26 5.054 3.99 5.486 3.798 5.99C3.618 6.494 3.528 7.04 3.528 7.628C3.528 8.228 3.618 8.78 3.798 9.284C3.99 9.776 4.26 10.208 4.608 10.58C4.956 10.94 5.37 11.222 5.85 11.426C6.342 11.63 6.888 11.732 7.488 11.732C8.1 11.732 8.628 11.666 9.072 11.534C9.516 11.39 9.87 11.246 10.134 11.102V9.032H7.848V6.44H12.834V13.1ZM15.3058 1.256H18.1138V6.008H23.5678V1.256H26.3758V14H23.5678V8.492H18.1138V14H15.3058V1.256ZM35.264 4.37C35.036 4.082 34.724 3.872 34.328 3.74C33.944 3.596 33.578 3.524 33.23 3.524C33.026 3.524 32.816 3.548 32.6 3.596C32.384 3.644 32.18 3.722 31.988 3.83C31.796 3.926 31.64 4.058 31.52 4.226C31.4 4.394 31.34 4.598 31.34 4.838C31.34 5.222 31.484 5.516 31.772 5.72C32.06 5.924 32.42 6.098 32.852 6.242C33.296 6.386 33.77 6.53 34.274 6.674C34.778 6.818 35.246 7.022 35.678 7.286C36.122 7.55 36.488 7.904 36.776 8.348C37.064 8.792 37.208 9.386 37.208 10.13C37.208 10.838 37.076 11.456 36.812 11.984C36.548 12.512 36.188 12.95 35.732 13.298C35.288 13.646 34.766 13.904 34.166 14.072C33.578 14.24 32.954 14.324 32.294 14.324C31.466 14.324 30.698 14.198 29.99 13.946C29.282 13.694 28.622 13.286 28.01 12.722L30.008 10.526C30.296 10.91 30.656 11.21 31.088 11.426C31.532 11.63 31.988 11.732 32.456 11.732C32.684 11.732 32.912 11.708 33.14 11.66C33.38 11.6 33.59 11.516 33.77 11.408C33.962 11.3 34.112 11.162 34.22 10.994C34.34 10.826 34.4 10.628 34.4 10.4C34.4 10.016 34.25 9.716 33.95 9.5C33.662 9.272 33.296 9.08 32.852 8.924C32.408 8.768 31.928 8.612 31.412 8.456C30.896 8.3 30.416 8.09 29.972 7.826C29.528 7.562 29.156 7.214 28.856 6.782C28.568 6.35 28.424 5.78 28.424 5.072C28.424 4.388 28.556 3.788 28.82 3.272C29.096 2.756 29.456 2.324 29.9 1.976C30.356 1.628 30.878 1.37 31.466 1.202C32.054 1.022 32.66 0.932 33.284 0.932C34.004 0.932 34.7 1.034 35.372 1.238C36.044 1.442 36.65 1.784 37.19 2.264L35.264 4.37Z" fill="#014C16"/>
</svg>
