<svg width="31" height="31" viewBox="0 0 31 31" fill="none" xmlns="http://www.w3.org/2000/svg">
    <path d="M11.6251 26.8021H7.75008C7.30218 26.8211 6.85492 26.7517 6.43389 26.5977C6.01286 26.4437 5.62632 26.2082 5.2964 25.9047C4.96648 25.6012 4.69965 25.2355 4.51117 24.8288C4.32269 24.422 4.21627 23.9821 4.198 23.5342V7.46582C4.21627 7.01789 4.32269 6.57796 4.51117 6.17119C4.69965 5.76443 4.96648 5.39883 5.2964 5.0953C5.62632 4.79177 6.01286 4.55628 6.43389 4.40229C6.85492 4.24831 7.30218 4.17885 7.75008 4.19791H11.6251C11.882 4.19791 12.1284 4.29997 12.3101 4.48165C12.4918 4.66332 12.5938 4.90973 12.5938 5.16666C12.5938 5.42358 12.4918 5.66999 12.3101 5.85166C12.1284 6.03334 11.882 6.13541 11.6251 6.13541H7.75008C7.36655 6.10206 6.9849 6.21761 6.68428 6.4581C6.38367 6.6986 6.18715 7.04558 6.1355 7.42707V23.5342C6.18715 23.9157 6.38367 24.2626 6.68428 24.5031C6.9849 24.7436 7.36655 24.8592 7.75008 24.8258H11.6251C11.882 24.8258 12.1284 24.9279 12.3101 25.1096C12.4918 25.2912 12.5938 25.5376 12.5938 25.7946C12.5938 26.0515 12.4918 26.2979 12.3101 26.4796C12.1284 26.6613 11.882 26.7633 11.6251 26.7633V26.8021ZM20.6667 21.6354C20.5395 21.636 20.4133 21.6112 20.2958 21.5624C20.1782 21.5136 20.0716 21.4418 19.9822 21.3512C19.8007 21.1696 19.6988 20.9234 19.6988 20.6667C19.6988 20.4099 19.8007 20.1637 19.9822 19.9821L24.4642 15.5L19.9822 11.0179C19.887 10.9292 19.8106 10.8223 19.7577 10.7034C19.7047 10.5846 19.6763 10.4563 19.674 10.3262C19.6717 10.1962 19.6956 10.067 19.7443 9.94634C19.7931 9.82572 19.8656 9.71614 19.9576 9.62415C20.0496 9.53216 20.1591 9.45964 20.2798 9.41091C20.4004 9.36219 20.5296 9.33826 20.6597 9.34056C20.7897 9.34285 20.918 9.37132 21.0369 9.42427C21.1557 9.47722 21.2626 9.55356 21.3513 9.64874L26.518 14.8154C26.6994 14.997 26.8013 15.2433 26.8013 15.5C26.8013 15.7567 26.6994 16.0029 26.518 16.1846L21.3513 21.3512C21.2619 21.4418 21.1553 21.5136 21.0377 21.5624C20.9201 21.6112 20.794 21.636 20.6667 21.6354Z" fill="#014C16"/>
    <path d="M25.8333 16.4688H11.625C11.3681 16.4688 11.1217 16.3667 10.94 16.185C10.7583 16.0033 10.6562 15.7569 10.6562 15.5C10.6562 15.2431 10.7583 14.9967 10.94 14.815C11.1217 14.6333 11.3681 14.5312 11.625 14.5312H25.8333C26.0903 14.5312 26.3367 14.6333 26.5183 14.815C26.7 14.9967 26.8021 15.2431 26.8021 15.5C26.8021 15.7569 26.7 16.0033 26.5183 16.185C26.3367 16.3667 26.0903 16.4688 25.8333 16.4688Z" fill="#014C16"/>
</svg>
