<svg width="47" height="47" viewBox="0 0 47 47" fill="none" xmlns="http://www.w3.org/2000/svg">
    <path d="M39.1667 41.125H20.3275C19.1975 41.125 18.0809 40.8804 17.0543 40.4082C16.0277 39.936 15.1154 39.2472 14.3801 38.3892L4.38863 26.7332C4.17941 26.4896 4.03333 26.1982 3.96325 25.8848C3.89316 25.5714 3.90123 25.2455 3.98675 24.936C4.07226 24.6264 4.2326 24.3426 4.45363 24.1096C4.67466 23.8766 4.9496 23.7016 5.25422 23.5999L9.10822 22.3152C10.0396 22.0119 11.0315 21.9431 11.9958 22.115C12.9602 22.2868 13.8673 22.6939 14.6366 23.3003L20.8739 28.2881L22.0822 25.8696C22.7295 24.5659 23.7289 23.4695 24.9673 22.7046C26.2057 21.9397 27.6335 21.5368 29.0891 21.5417H39.1667C41.3267 21.5417 43.0833 23.2983 43.0833 25.4583V37.2083C43.0833 39.3684 41.3267 41.125 39.1667 41.125ZM39.1667 25.4583H29.0891C27.5949 25.4583 26.2534 26.2867 25.5856 27.6223L24.7103 29.375H33.2917V33.2917H21.5143C21.213 33.2874 20.9168 33.2137 20.6487 33.0763L20.6428 33.0743L20.635 33.0704H20.6291L20.6252 33.0684H20.6173L20.6154 33.0665C20.5938 33.0723 20.6095 33.0645 20.6095 33.0645C20.586 33.0645 20.6056 33.0625 20.6056 33.0625H20.6036L20.5997 33.0606L20.5938 33.0586L20.5899 33.0567L20.586 33.0547L20.5801 33.0528L20.5762 33.0508L20.5723 33.0488L20.5664 33.0449L20.5625 33.043L20.5586 33.041L20.5527 33.039L20.5488 33.0371H20.5468L20.5429 33.0351L20.5371 33.0332L20.5331 33.0312C20.5116 33.0293 20.5273 33.0293 20.5273 33.0293L20.5233 33.0273C20.4482 32.9813 20.3762 32.9303 20.3079 32.8745L12.1887 26.3788C11.6776 25.9714 10.9686 25.8441 10.3478 26.0517L9.25705 26.416L17.3508 35.861C17.7232 36.2837 18.1812 36.6223 18.6944 36.8546C19.2075 37.0869 19.7642 37.2075 20.3275 37.2083H39.1667V25.4583ZM20.0514 4.55509C20.9542 5.54601 25.4583 10.6866 25.4583 14.6875C25.4583 18.4671 22.3838 21.5417 18.6042 21.5417C14.8246 21.5417 11.75 18.4671 11.75 14.6875C11.75 10.6866 16.2542 5.54601 17.157 4.55509C17.8992 3.74043 19.3092 3.74043 20.0514 4.55509ZM15.6667 14.6875C15.6667 16.307 16.9846 17.625 18.6042 17.625C20.2237 17.625 21.5417 16.307 21.5417 14.6875C21.5417 13.301 20.0964 10.9001 18.6042 8.94176C17.1119 10.9001 15.6667 13.301 15.6667 14.6875Z" fill="#014C16"/>
</svg>
