<svg width="18" height="20" viewBox="0 0 18 20" fill="none" xmlns="http://www.w3.org/2000/svg">
    <path d="M4.99997 15C4.99997 17.2092 6.79083 19 8.99997 19C11.2091 19 13 17.2092 13 15M15.5831 15H2.41686C1.72592 15 1.24317 14.316 1.47464 13.665L2.33419 11.2475C2.62773 10.422 2.77775 9.55222 2.77775 8.67601V7.22225C2.77775 3.78582 5.56353 1.00003 8.99997 1.00003C12.4364 1.00003 15.2222 3.78582 15.2222 7.22225V8.67601C15.2222 9.55222 15.3722 10.422 15.6658 11.2475L16.5253 13.665C16.7568 14.316 16.274 15 15.5831 15Z" stroke="#014C16" stroke-width="1.5"/>
</svg>
