<svg width="25" height="27" viewBox="0 0 25 27" fill="none" xmlns="http://www.w3.org/2000/svg">
<path d="M19.5313 22.5H5.46879C4.60406 22.5001 3.77209 22.1428 3.14355 21.5014C2.51501 20.86 2.13754 19.9832 2.08858 19.0508L2.08337 18.8438V7.03125C2.0833 6.38986 2.30868 5.77235 2.71397 5.30353C3.11925 4.8347 3.67422 4.54952 4.26671 4.50563L4.42712 4.5H17.448C18.0418 4.49992 18.6136 4.74333 19.0477 5.18104C19.4818 5.61875 19.7459 6.21811 19.7865 6.858L19.7917 7.03125V7.875H20.573C21.1668 7.87492 21.7386 8.11833 22.1727 8.55604C22.6068 8.99375 22.8709 9.59311 22.9115 10.233L22.9167 10.4063V18.8438C22.9168 19.7777 22.5859 20.6762 21.9921 21.355C21.3982 22.0338 20.5863 22.4415 19.723 22.4944L19.5313 22.5ZM5.46879 20.8125H19.5313C19.9889 20.8125 20.4298 20.6265 20.7664 20.2916C21.103 19.9566 21.3106 19.4972 21.348 19.0046L21.3542 18.8438V10.4063C21.3542 10.2024 21.2858 10.0054 21.1617 9.8517C21.0377 9.69804 20.8662 9.5981 20.6792 9.57038L20.573 9.5625H19.7917V18.2813C19.7917 18.4851 19.7233 18.6821 19.5992 18.8358C19.4752 18.9895 19.3037 19.0894 19.1167 19.1171L19.0105 19.125C18.8217 19.125 18.6393 19.0512 18.497 18.9171C18.3547 18.7831 18.2622 18.598 18.2365 18.396L18.2292 18.2813V7.03125C18.2292 6.82736 18.1608 6.63037 18.0367 6.4767C17.9127 6.32304 17.7412 6.2231 17.5542 6.19538L17.448 6.1875H4.42712C4.23834 6.18751 4.05593 6.26135 3.91365 6.39536C3.77137 6.52938 3.67884 6.7145 3.65317 6.9165L3.64587 7.03125V18.8438C3.64589 19.3378 3.81793 19.8139 4.12783 20.1773C4.43774 20.5408 4.86285 20.7651 5.31879 20.8058L5.46879 20.8125ZM12.7563 16.3125H15.8875C16.0855 16.3126 16.276 16.3938 16.4207 16.5397C16.5653 16.6857 16.6532 16.8855 16.6667 17.0987C16.6802 17.312 16.6183 17.5229 16.4933 17.6887C16.3684 17.8545 16.1899 17.963 15.9938 17.9921L15.8875 18H12.7563C12.5584 17.9999 12.3678 17.9187 12.2232 17.7728C12.0785 17.6268 11.9906 17.427 11.9771 17.2138C11.9636 17.0005 12.0256 16.7896 12.1505 16.6238C12.2754 16.458 12.4539 16.3495 12.65 16.3204L12.7563 16.3125ZM9.62817 12.3806C9.83537 12.3806 10.0341 12.4695 10.1806 12.6278C10.3271 12.786 10.4094 13.0006 10.4094 13.2244V17.1563C10.4094 17.38 10.3271 17.5946 10.1806 17.7529C10.0341 17.9111 9.83537 18 9.62817 18H5.98754C5.78034 18 5.58163 17.9111 5.43511 17.7529C5.2886 17.5946 5.20629 17.38 5.20629 17.1563V13.2244C5.20629 13.0006 5.2886 12.786 5.43511 12.6278C5.58163 12.4695 5.78034 12.3806 5.98754 12.3806H9.62817ZM8.84692 14.0681H6.76879V16.3125H8.84692V14.0681ZM12.7563 12.3806H15.8875C16.0855 12.3807 16.276 12.4619 16.4207 12.6078C16.5653 12.7538 16.6532 12.9536 16.6667 13.1669C16.6802 13.3801 16.6183 13.591 16.4933 13.7568C16.3684 13.9227 16.1899 14.0311 15.9938 14.0603L15.8875 14.0681H12.7563C12.5569 14.0703 12.3644 13.9901 12.218 13.8439C12.0716 13.6978 11.9825 13.4967 11.9689 13.2819C11.9553 13.0671 12.0183 12.8548 12.1449 12.6885C12.2716 12.5222 12.4523 12.4145 12.65 12.3874L12.7563 12.3806ZM5.98754 8.43975H15.8875C16.0869 8.43756 16.2795 8.51776 16.4259 8.66393C16.5722 8.8101 16.6613 9.01118 16.6749 9.22599C16.6885 9.44079 16.6255 9.65308 16.4989 9.81938C16.3723 9.98568 16.1916 10.0934 15.9938 10.1205L15.8875 10.1273H5.98754C5.7896 10.1272 5.59906 10.046 5.45442 9.90003C5.30979 9.75409 5.22184 9.55429 5.20835 9.34101C5.19486 9.12773 5.25683 8.91687 5.38174 8.75104C5.50666 8.58521 5.6852 8.47676 5.88129 8.44763L5.98754 8.43975Z" fill="#014C16"/>
</svg>
