<svg width="26" height="26" viewBox="0 0 26 26" fill="none" xmlns="http://www.w3.org/2000/svg">
    <path d="M13 1C6.3724 1 1 6.3724 1 13C1 19.6276 6.3724 25 13 25C19.6276 25 25 19.6276 25 13C25 6.3724 19.6276 1 13 1Z" stroke="#014C16" stroke-width="1.5" stroke-linecap="round" stroke-linejoin="round"/>
    <path d="M3.72534 20.6152C3.72534 20.6152 6.40014 17.2 13.0001 17.2C19.6001 17.2 22.2761 20.6152 22.2761 20.6152M13.0001 13C13.9549 13 14.8706 12.6207 15.5457 11.9456C16.2209 11.2705 16.6001 10.3548 16.6001 9.4C16.6001 8.44522 16.2209 7.52955 15.5457 6.85442C14.8706 6.17929 13.9549 5.8 13.0001 5.8C12.0454 5.8 11.1297 6.17929 10.4546 6.85442C9.77943 7.52955 9.40014 8.44522 9.40014 9.4C9.40014 10.3548 9.77943 11.2705 10.4546 11.9456C11.1297 12.6207 12.0454 13 13.0001 13Z" stroke="#014C16" stroke-width="1.5" stroke-linecap="round" stroke-linejoin="round"/>
</svg>
