<svg width="26" height="26" viewBox="0 0 26 26" fill="none" xmlns="http://www.w3.org/2000/svg">
    <path d="M20.5833 10.8333H21.6667C22.265 10.8333 22.75 11.3183 22.75 11.9166V22.75C22.75 23.3483 22.265 23.8333 21.6667 23.8333H4.33333C3.73503 23.8333 3.25 23.3483 3.25 22.75V11.9166C3.25 11.3183 3.73503 10.8333 4.33333 10.8333H5.41667V9.74996C5.41667 5.5618 8.81184 2.16663 13 2.16663C17.1882 2.16663 20.5833 5.5618 20.5833 9.74996V10.8333ZM5.41667 13V21.6666H20.5833V13H5.41667ZM11.9167 15.1666H14.0833V19.5H11.9167V15.1666ZM18.4167 10.8333V9.74996C18.4167 6.75842 15.9915 4.33329 13 4.33329C10.0085 4.33329 7.58333 6.75842 7.58333 9.74996V10.8333H18.4167Z" fill="#014C16"/>
</svg>
