<svg width="24" height="24" viewBox="0 0 24 24" fill="none" xmlns="http://www.w3.org/2000/svg">
    <path d="M15.5 15L14 10.5C12.343 10.5 12 11.843 12 13.5M12 13.5V15M12 13.5C12 11.843 11.657 10.5 10 10.5L8.5 15" stroke="#014C16" stroke-width="1.5" stroke-linecap="round" stroke-linejoin="round"/>
    <path d="M21.978 22C20.828 21.33 18.892 19.814 16.288 20.008C15.629 20.057 15.299 20.082 14.998 20.058C14.8886 20.0543 14.7794 20.0446 14.671 20.029C13.139 19.674 12 18.336 12 16.74M12 16.74V3.19601M12 16.74C12 18.336 10.861 19.675 9.329 20.029C9.312 20.033 9.303 20.034 9.002 20.058C8.701 20.082 8.371 20.057 7.712 20.008C5.108 19.814 3.172 21.33 2.022 22M12 3.19601C12.0005 2.91903 12.0971 2.65081 12.2733 2.43707C12.4495 2.22333 12.6943 2.0773 12.9661 2.02386C13.2378 1.97043 13.5197 2.0129 13.7637 2.14403C14.0077 2.27517 14.1986 2.48686 14.304 2.74301L17.022 9.38701C18.088 11.992 18.621 13.294 19.55 13.964C19.607 14.006 19.713 14.077 19.773 14.114C20.744 14.72 21.163 14.72 22 14.72M12 3.19601C11.9995 2.91903 11.9029 2.65081 11.7267 2.43707C11.5505 2.22333 11.3057 2.0773 11.0339 2.02386C10.7622 1.97043 10.4803 2.0129 10.2363 2.14403C9.99231 2.27517 9.80137 2.48686 9.696 2.74301L6.978 9.38801C5.912 11.993 5.379 13.296 4.45 13.965C4.37702 14.017 4.30266 14.067 4.227 14.115C3.256 14.721 2.837 14.721 2 14.721" stroke="#014C16" stroke-width="1.5" stroke-linecap="round" stroke-linejoin="round"/>
</svg>
