<svg width="27" height="27" viewBox="0 0 27 27" fill="none" xmlns="http://www.w3.org/2000/svg">
    <path d="M6.75 24.75H23.625V22.5H6.7635C6.24375 22.4865 5.625 22.2806 5.625 21.375C5.625 20.4694 6.24375 20.2635 6.7635 20.25H23.625V4.5C23.625 3.25912 22.6159 2.25 21.375 2.25H6.75C5.39325 2.25 3.375 3.14887 3.375 5.625V21.375C3.375 23.8511 5.39325 24.75 6.75 24.75ZM5.625 9V5.625C5.625 4.71937 6.24375 4.5135 6.75 4.5H21.375V18H5.625V9Z" fill="#014C16"/>
    <path d="M12.375 15.75H14.625V11.25H16.875V9H14.625V6.75H12.375V9H10.125V11.25H12.375V15.75Z" fill="#014C16"/>
</svg>
