<svg width="218" height="211" viewBox="0 0 218 211" fill="none" xmlns="http://www.w3.org/2000/svg">
    <rect x="82" y="84" width="68" height="68" rx="34" stroke="#FF4D00" stroke-width="4"/>
    <path d="M110.688 128.547L100 117.859L102.672 115.188L110.688 123.203L127.891 106L130.563 108.672L110.688 128.547Z" fill="#FF4D00"/>
    <path d="M179.999 144.577C182.46 145.092 184.804 143.124 185.235 140.176C185.694 140.96 186.153 141.745 186.612 142.531C186.181 145.478 183.835 147.447 181.378 146.931C180.919 146.145 180.459 145.361 179.999 144.577Z" fill="#FFBA49"/>
    <path d="M107.332 207.63C109.793 208.146 112.137 206.177 112.568 203.23C113.027 204.014 113.486 204.798 113.945 205.584C113.515 208.531 111.169 210.501 108.711 209.985C108.252 209.199 107.792 208.414 107.332 207.63Z" fill="#9B9B9B"/>
    <path d="M185.494 95.236C186.526 97.9598 189.205 99.1703 191.481 97.9342C191.199 98.8317 190.917 99.7291 190.634 100.626C188.358 101.86 185.679 100.651 184.648 97.9263C184.932 97.0305 185.214 96.1337 185.494 95.236Z" fill="#FF5C00"/>
    <path d="M169.571 75.8868C169.987 72.9358 168.327 70.1416 165.864 69.6445C166.515 69.0884 167.167 68.5325 167.82 67.9767C170.282 68.4738 171.942 71.2692 171.528 74.219C170.876 74.7752 170.224 75.3312 169.571 75.8868Z" fill="#021193"/>
    <path d="M21.7077 63.9773C22.123 61.0263 20.4636 58.2319 18 57.7348C18.6515 57.1787 19.3035 56.6228 19.9563 56.0671C22.418 56.5641 24.0783 59.3595 23.664 62.3095C23.0125 62.8655 22.3604 63.4215 21.7077 63.9773Z" fill="#FF5C00"/>
    <path d="M72.0943 168.542C72.5097 165.591 70.8502 162.796 68.3867 162.299C69.0381 161.743 69.6902 161.187 70.3428 160.631C72.8045 161.128 74.4649 163.924 74.0505 166.874C73.3991 167.43 72.747 167.986 72.0943 168.542Z" fill="#FF5C00"/>
    <path d="M201.332 57.9563C203.776 58.5732 206.174 56.6998 206.688 53.7703C207.126 54.5729 207.563 55.3762 208 56.18C207.486 59.1066 205.087 60.9812 202.644 60.366C202.206 59.5634 201.769 58.7601 201.332 57.9563Z" fill="#FFBA49"/>
    <path d="M5.82079 94.2084C4.94465 91.4056 2.33935 89.9843 0 91.0352C0.330918 90.1638 0.662322 89.2913 0.994215 88.4176C3.33162 87.3679 5.93838 88.788 6.815 91.5896C6.4841 92.4622 6.15269 93.3351 5.82079 94.2084Z" fill="#FFBA49"/>
    <path d="M66.534 128.347C66.7066 131.331 68.8667 133.583 71.3578 133.375C70.8324 134.1 70.3062 134.821 69.7818 135.546C67.2898 135.752 65.1306 133.499 64.9581 130.514C65.4834 129.793 66.0087 129.07 66.534 128.347Z" fill="#DB3022"/>
    <path d="M48.9286 74.1202C51.4026 73.709 53.1294 70.972 52.7851 68.008C53.4242 68.5868 54.0624 69.1649 54.6997 69.7422C55.0429 72.7074 53.3171 75.4426 50.8431 75.8556C50.2058 75.2768 49.5677 74.6983 48.9286 74.1202Z" fill="#021193"/>
    <path d="M149.812 37.7727C146.604 37.8789 148.91 43.5316 145.701 43.6402C145.089 43.0238 144.476 42.4075 143.862 41.7911C147.071 41.6843 144.765 36.0316 147.973 35.9232C148.587 36.5395 149.199 37.156 149.812 37.7727Z" fill="#FF5C00"/>
    <path d="M155.642 186.345C152.519 185.459 153.531 191.632 150.407 190.747C149.947 189.962 149.488 189.177 149.029 188.392C152.152 189.278 151.139 183.105 154.264 183.991C154.723 184.776 155.182 185.561 155.642 186.345Z" fill="#FFBA49"/>
    <path d="M62.7805 194.382C60.5749 197.177 65.5418 199.224 63.3362 202.016C62.5397 202.098 61.7422 202.183 60.9457 202.264C63.1513 199.472 58.1843 197.427 60.39 194.632C61.1875 194.55 61.9843 194.467 62.7805 194.382Z" fill="#021193"/>
    <path d="M134.225 1.42183C131.085 2.22105 134.202 7.28592 131.063 8.08341C130.369 7.60852 129.671 7.13537 128.977 6.65932C132.116 5.86229 128.998 0.799255 132.138 0C132.834 0.476037 133.53 0.949981 134.225 1.42183Z" fill="#DB3022"/>
    <path d="M33.4438 18.071C34.9885 21.4429 38.1371 16.4065 39.6794 19.7774C39.5003 20.7107 39.3234 21.6474 39.1432 22.5813C37.6009 19.2093 34.4542 24.2473 32.9095 20.8754C33.0891 19.9392 33.2672 19.0044 33.4438 18.071Z" fill="#9B9B9B"/>
    <path d="M6.81506 150.65C7.22939 150.575 7.60424 150.357 7.87417 150.034C8.1441 149.71 8.29197 149.302 8.29197 148.881C8.29197 148.459 8.1441 148.051 7.87417 147.728C7.60424 147.404 7.22939 147.186 6.81506 147.111" fill="black"/>
    <path d="M174.448 13.9329C173.098 13.9329 172 12.6172 172 11C172 9.38272 173.098 8.06714 174.448 8.06714C175.798 8.06714 176.896 9.38275 176.896 11C176.896 12.6173 175.798 13.9329 174.448 13.9329ZM174.448 9.23052C174.019 9.27292 173.624 9.4821 173.348 9.81303C173.072 10.144 172.936 10.5702 172.971 11C172.932 11.2164 172.941 11.4387 172.997 11.6514C173.053 11.864 173.155 12.0616 173.296 12.2304C173.437 12.3992 173.613 12.5349 173.812 12.6281C174.011 12.7213 174.228 12.7695 174.448 12.7695C174.668 12.7695 174.885 12.7213 175.084 12.6281C175.283 12.5349 175.459 12.3992 175.6 12.2304C175.741 12.0616 175.843 11.864 175.899 11.6514C175.955 11.4387 175.964 11.2164 175.925 11C175.959 10.5702 175.824 10.144 175.548 9.81305C175.272 9.48212 174.877 9.27294 174.448 9.23052Z" fill="black"/>
    <path d="M31.9474 125.05C30.5976 125.05 29.4995 123.735 29.4995 122.117C29.4995 120.5 30.5976 119.185 31.9474 119.185C33.2972 119.185 34.3953 120.5 34.3953 122.117C34.3953 123.735 33.2972 125.05 31.9474 125.05ZM31.9474 120.348C31.5331 120.423 31.1582 120.641 30.8883 120.965C30.6184 121.288 30.4705 121.696 30.4705 122.117C30.4705 122.539 30.6184 122.947 30.8883 123.27C31.1582 123.594 31.5331 123.812 31.9474 123.887C32.3617 123.812 32.7366 123.594 33.0065 123.27C33.2764 122.947 33.4243 122.539 33.4243 122.117C33.4243 121.696 33.2764 121.288 33.0065 120.965C32.7366 120.641 32.3617 120.423 31.9474 120.348Z" fill="black"/>
    <path d="M216.821 154.204C215.945 151.401 213.339 149.98 211 151.031C211.331 150.159 211.662 149.287 211.994 148.413C214.332 147.363 216.938 148.783 217.815 151.585C217.484 152.458 217.153 153.331 216.821 154.204Z" fill="black"/>
</svg>
