<?xml version="1.0" encoding="utf-8"?>
<!-- Generator: Adobe Illustrator 27.5.0, SVG Export Plug-In . SVG Version: 6.00 Build 0)  -->
<svg version="1.1" xmlns="http://www.w3.org/2000/svg" xmlns:xlink="http://www.w3.org/1999/xlink" x="0px" y="0px"
	 viewBox="0 0 2475 1650" style="enable-background:new 0 0 2475 1650;" xml:space="preserve">
<g id="Background">
	<rect style="fill:#FFFFFF;" width="2475" height="1650"/>
</g>
<g id="Illustration">
	<g>
		
			<linearGradient id="SVGID_1_" gradientUnits="userSpaceOnUse" x1="-1625.7031" y1="750.8439" x2="528.3953" y2="750.8439" gradientTransform="matrix(-1 0 0 1 702.648 0)">
			<stop  offset="0" style="stop-color:#DAE3FE"/>
			<stop  offset="1" style="stop-color:#E9EFFD"/>
		</linearGradient>
		<path style="fill:url(#SVGID_1_);" d="M1767.424,173.23c126.502,144.895,565.509-16.073,560.891,251.067
			c-5.406,312.8-436.867,404.831-297.159,624.678c139.708,219.847-39.442,388.332-600.858,383.691
			C868.883,1428.025-9.396,1230.048,208.189,930.37c217.585-299.678,72.614-315.05,62-447.494
			c-10.614-132.444,99.465-422.957,534.275-180.688S1447.083-193.686,1767.424,173.23z"/>
		<g>
			<g>
				<g>
					<path style="fill:#91B3FA;" d="M1117.564,876.193c-19.996-95.185-69.21-174.468-131.905-224.55
						c-56.046-44.77-93.181-109.335-102.194-180.428c-0.948-7.473-2.21-15-3.797-22.557
						C855.62,334.181,765.983,256.113,679.459,274.29c-86.524,18.176-137.171,125.713-113.123,240.189
						c4.917,23.409,12.579,45.289,22.396,65.133c31.331,63.332,38.768,136.191,18.115,203.794
						c-18.456,60.415-22.098,130.203-7.107,201.566c22.359,106.433,81.249,192.989,154.668,241.068
						c27.771,18.186,52.138,41.304,71.538,68.207c32.239,44.707,81.534,69.235,130.111,59.03
						c52.404-11.009,89.304-59.356,97.631-119.339c4.712-33.943,16.046-66.522,32.225-96.759
						C1124.108,1065.798,1137.781,972.43,1117.564,876.193z"/>
					<path style="fill:#BDD0FB;" d="M735.339,389.706c27.197,73.283,52.017,147.381,76.063,221.737
						c6.02,18.586,11.74,37.268,17.52,55.93l8.666,27.995l8.432,28.067c5.549,18.733,11.357,37.39,16.693,56.188l16.014,56.387
						c10.195,37.727,20.711,75.366,30.205,113.283c4.773,18.95,9.916,37.804,14.304,56.852l13.427,57.071
						c17.133,76.271,32.356,153.008,43.668,230.365l-3.329,0.521l-10.667-57.556l-2.635-14.389l-2.994-14.324l-6.042-28.634
						l-5.986-28.64c-1.978-9.549-4.311-19.026-6.449-28.543c-4.403-19.006-8.656-38.043-13.182-57.018
						c-18.598-75.789-38.202-151.33-59.361-226.457c-10.867-37.483-21.412-75.055-32.54-112.465l-8.269-28.079l-8.504-28.01
						c-5.658-18.677-11.317-37.354-17.164-55.974c-11.376-37.338-23.02-74.598-34.969-111.761
						c-11.753-37.225-23.86-74.349-36.076-111.419L735.339,389.706z"/>
					<g style="opacity:0.5;">
						<path style="fill:#BDD0FB;" d="M634.964,601.515c-0.806-0.151-1.54-0.647-1.966-1.42
							c-51.022-92.581-42.804-162.228-26.926-204.353c17.25-45.763,46.229-69.185,47.454-70.16c1.226-0.978,3.008-0.773,3.986,0.453
							c0.976,1.226,0.774,3.01-0.451,3.988c-0.289,0.231-29.131,23.602-45.783,68.006c-15.363,40.962-23.202,108.793,26.691,199.326
							c0.757,1.374,0.257,3.1-1.115,3.856C636.254,601.541,635.588,601.631,634.964,601.515z"/>
					</g>
				</g>
				<g>
					<path style="fill:#BDD0FB;" d="M752.347,1086.126c-32.475-43.975-76.13-73.016-119.826-83.997
						c-39.062-9.816-73.112-34.152-94.348-68.376c-2.232-3.597-4.637-7.149-7.216-10.64
						c-39.057-52.887-103.044-71.888-142.918-42.441c-39.875,29.448-40.538,96.193-1.482,149.079
						c7.986,10.815,17.014,20.209,26.666,28.061c30.802,25.058,51.646,60.552,56.935,99.905
						c4.726,35.169,19.202,71.674,43.549,104.643c36.312,49.171,86.604,79.673,135.302,87.132
						c18.419,2.821,36.258,8.956,52.448,18.181c26.905,15.33,57.787,16.376,80.174-0.156c24.15-17.835,31.655-51.135,21.863-83.723
						c-5.541-18.44-7.385-37.727-6.21-56.946C800.058,1181.477,785.181,1130.586,752.347,1086.126z"/>
					<path style="fill:#91B3FA;" d="M443.551,926.623c31.022,31.106,61.022,63.182,90.688,95.57
						c7.42,8.094,14.709,16.306,22.025,24.494l10.971,12.285l10.87,12.376c7.214,8.279,14.543,16.458,21.663,24.818l21.364,25.079
						c14.03,16.901,28.202,33.681,41.917,50.843c6.869,8.57,13.905,17.005,20.601,25.715l20.204,26.031
						c26.588,34.977,52.311,70.638,76.185,107.527l-1.576,1.042l-18.91-26.922l-4.711-6.738l-4.879-6.621l-9.783-13.223
						l-9.756-13.238c-3.244-4.418-6.651-8.717-9.969-13.081c-6.694-8.684-13.318-17.421-20.068-26.061
						c-27.222-34.39-54.9-68.419-83.274-101.874c-14.315-16.619-28.486-33.359-42.917-49.88l-10.789-12.42l-10.893-12.33
						c-7.257-8.224-14.514-16.448-21.854-24.599c-14.54-16.427-29.2-32.751-43.991-48.955
						c-14.706-16.281-29.569-32.428-44.476-48.522L443.551,926.623z"/>
					<g style="opacity:0.5;">
						
							<linearGradient id="SVGID_00000031201300646757748080000003720519776742623416_" gradientUnits="userSpaceOnUse" x1="380.4828" y1="977.3027" x2="454.9763" y2="977.3027">
							<stop  offset="0" style="stop-color:#DAE3FE"/>
							<stop  offset="1" style="stop-color:#E9EFFD"/>
						</linearGradient>
						<path style="fill:url(#SVGID_00000031201300646757748080000003720519776742623416_);" d="M453.775,1053.596
							c-0.469,0.144-0.997,0.084-1.438-0.208c-52.787-34.99-67.757-74.248-71.02-101.02c-3.545-29.084,5.339-49.563,5.719-50.421
							c0.38-0.86,1.383-1.245,2.242-0.866c0.858,0.38,1.247,1.383,0.868,2.242c-0.09,0.203-8.915,20.617-5.43,48.814
							c3.214,26.011,17.881,64.2,69.5,98.416c0.783,0.519,0.997,1.574,0.478,2.357
							C454.467,1053.251,454.138,1053.484,453.775,1053.596z"/>
					</g>
				</g>
			</g>
			<g>
				<g>
					<path style="fill:#91B3FA;" d="M1373.716,950.734c16.51-78.589,57.142-144.049,108.906-185.399
						c46.274-36.964,76.934-90.272,84.376-148.97c0.782-6.17,1.824-12.384,3.135-18.624
						c19.855-94.517,93.864-158.973,165.302-143.966c71.438,15.007,113.255,103.794,93.4,198.312
						c-4.06,19.327-10.386,37.392-18.491,53.777c-25.869,52.29-32.009,112.445-14.957,168.262
						c15.238,49.881,18.245,107.502,5.867,166.422c-18.46,87.876-67.083,159.34-127.701,199.037
						c-22.929,15.015-43.047,34.103-59.065,56.315c-26.618,36.912-67.318,57.163-107.425,48.738
						c-43.267-9.089-73.734-49.007-80.608-98.531c-3.89-28.025-13.248-54.923-26.607-79.889
						C1368.314,1107.28,1357.024,1030.192,1373.716,950.734z"/>
					<path style="opacity:0.57;fill:#FFFFFF;" d="M1689.299,549.068c-22.455,60.505-42.948,121.684-62.801,183.076
						c-4.97,15.346-9.693,30.77-14.465,46.178l-7.155,23.114l-6.962,23.174c-4.581,15.467-9.376,30.871-13.782,46.391
						l-13.222,46.556c-8.418,31.149-17.1,62.226-24.938,93.532c-3.941,15.646-8.187,31.213-11.81,46.94l-11.086,47.12
						c-14.146,62.973-26.715,126.33-36.054,190.2l2.749,0.43l8.807-47.521l2.175-11.881l2.472-11.827l4.988-23.642l4.943-23.646
						c1.633-7.885,3.56-15.709,5.325-23.566c3.636-15.692,7.147-31.41,10.884-47.076c15.355-62.574,31.541-124.944,49.011-186.973
						c8.972-30.947,17.679-61.969,26.866-92.856l6.827-23.183l7.021-23.126c4.672-15.42,9.344-30.841,14.172-46.214
						c9.393-30.828,19.006-61.591,28.872-92.275c9.704-30.735,19.7-61.386,29.786-91.993L1689.299,549.068z"/>
					<path style="opacity:0.5;fill:#FFFFFF;" d="M1772.173,723.947c0.665-0.125,1.272-0.534,1.623-1.173
						c42.126-76.439,35.34-133.943,22.231-168.723c-14.242-37.784-38.168-57.122-39.18-57.927c-1.012-0.807-2.484-0.638-3.291,0.374
						c-0.806,1.012-0.639,2.486,0.372,3.292c0.239,0.19,24.052,19.487,37.801,56.149c12.684,33.82,19.157,89.824-22.037,164.573
						c-0.625,1.134-0.213,2.56,0.921,3.184C1771.108,723.969,1771.658,724.043,1772.173,723.947z"/>
				</g>
				<g>
					<path style="fill:#BDD0FB;" d="M1681.805,1089.328c30.657-41.513,71.869-68.929,113.12-79.295
						c36.876-9.266,69.02-32.24,89.067-64.549c2.107-3.396,4.378-6.749,6.812-10.045c36.871-49.927,97.276-67.865,134.919-40.065
						c37.643,27.799,38.27,90.809,1.399,140.735c-7.539,10.209-16.062,19.078-25.174,26.49
						c-29.078,23.656-48.755,57.163-53.748,94.313c-4.462,33.2-18.127,67.663-41.112,98.786
						c-34.28,46.419-81.757,75.214-127.729,82.255c-17.389,2.663-34.229,8.454-49.513,17.163
						c-25.399,14.472-54.552,15.46-75.687-0.147c-22.798-16.837-29.883-48.273-20.64-79.037c5.231-17.408,6.971-35.615,5.862-53.759
						C1636.764,1179.342,1650.809,1131.299,1681.805,1089.328z"/>
					<path style="opacity:0.57;fill:#FFFFFF;" d="M1973.318,938.752c-29.286,29.365-57.607,59.646-85.612,90.221
						c-7.005,7.641-13.886,15.393-20.792,23.123l-10.357,11.597l-10.261,11.683c-6.81,7.815-13.729,15.537-20.451,23.429
						l-20.168,23.675c-13.244,15.955-26.623,31.796-39.571,47.997c-6.485,8.09-13.127,16.053-19.448,24.276l-19.074,24.574
						c-25.1,33.019-49.384,66.684-71.921,101.508l1.488,0.984l17.852-25.415l4.448-6.361l4.606-6.251l9.235-12.483l9.21-12.497
						c3.062-4.171,6.279-8.229,9.411-12.349c6.319-8.198,12.573-16.446,18.944-24.602c25.699-32.465,51.827-64.589,78.613-96.172
						c13.514-15.689,26.892-31.492,40.515-47.089l10.185-11.725l10.283-11.64c6.85-7.764,13.702-15.528,20.631-23.223
						c13.726-15.507,27.565-30.918,41.528-46.215c13.883-15.37,27.914-30.613,41.986-45.806L1973.318,938.752z"/>
					<path style="opacity:0.5;fill:#FFFFFF;" d="M1963.666,1058.619c0.443,0.136,0.941,0.079,1.358-0.196
						c49.832-33.031,63.964-70.092,67.045-95.366c3.346-27.456-5.04-46.789-5.399-47.599c-0.358-0.811-1.305-1.176-2.117-0.817
						c-0.81,0.359-1.177,1.306-0.819,2.117c0.084,0.191,8.416,19.463,5.126,46.082c-3.034,24.556-16.88,60.607-65.61,92.908
						c-0.739,0.49-0.941,1.486-0.452,2.225C1963.013,1058.293,1963.323,1058.514,1963.666,1058.619z"/>
				</g>
			</g>
		</g>
		<g>
			<g>
				<path style="fill:#91B3FA;" d="M925.864,1350.001c0,0-13.479-93.456,91.659-100.645
					c105.138-7.189,618.248,10.783,618.248,10.783s-21.567,104.24,0,149.17c-98.848-0.899-670.368,0-670.368,0
					S922.511,1388.715,925.864,1350.001z"/>
				
					<linearGradient id="SVGID_00000074407200807014745300000005657626422358426551_" gradientUnits="userSpaceOnUse" x1="1262.9607" y1="1004.6798" x2="1301.981" y2="1559.1757">
					<stop  offset="0" style="stop-color:#09005D"/>
					<stop  offset="1" style="stop-color:#1A0F91"/>
				</linearGradient>
				<path style="fill:url(#SVGID_00000074407200807014745300000005657626422358426551_);" d="M1645.656,1397.914
					c-84.31,0-634.834,0-647.004,0c-13.18,0-63.502,3.418-62.304-52.895c0.576-27.067,14.992-43.581,29.81-54.152
					c13.736-9.799,30.204-14.407,47.077-14.407c86.334,0,528.782,0,589.288,0c67.097,0,47.327-57.606,47.327-57.606l-0.599,0.113
					l-630.229-0.841c0,0-93.456,55.314-103.422,111.743c-2.355,13.339-1.97,25.72-0.007,36.238
					c5.704,30.569,32.449,53.115,63.546,53.115h666.518c5.955,0,10.783-4.699,10.783-10.656
					C1656.439,1402.61,1651.611,1397.914,1645.656,1397.914z"/>
				
					<linearGradient id="SVGID_00000032634775783610781070000004084326603154553005_" gradientUnits="userSpaceOnUse" x1="1247.1276" y1="-258.6767" x2="1383.7366" y2="1682.6038">
					<stop  offset="0" style="stop-color:#09005D"/>
					<stop  offset="1" style="stop-color:#1A0F91"/>
				</linearGradient>
				<path style="fill:url(#SVGID_00000032634775783610781070000004084326603154553005_);" d="M1607.593,445.457h-601.519v816.087
					h601.519c23.007,0,39.845-20.055,39.845-43.063V485.853C1647.438,462.845,1630.599,445.457,1607.593,445.457z"/>
				
					<linearGradient id="SVGID_00000030447572734403199840000018181307331943853199_" gradientUnits="userSpaceOnUse" x1="915.5983" y1="886.9716" x2="1005.8407" y2="886.9716">
					<stop  offset="0" style="stop-color:#09005D"/>
					<stop  offset="1" style="stop-color:#1A0F91"/>
				</linearGradient>
				<path style="fill:url(#SVGID_00000030447572734403199840000018181307331943853199_);" d="M1005.841,444.195
					c0,0-97.051,19.334-89.862,94.137c7.189,74.803-0.381,791.416-0.381,791.416s29.136-69.609,90.242-69.609
					C1005.841,1105.577,1005.841,444.195,1005.841,444.195z"/>
				<path style="fill:#BDD0FB;" d="M1570.73,1290.027c0,0.745-0.604,1.348-1.348,1.348h-470.336c-0.745,0-1.348-0.603-1.348-1.348
					v-1.566c0-0.745,0.603-1.348,1.348-1.348h470.336c0.745,0,1.348,0.603,1.348,1.348V1290.027z"/>
				<path style="fill:#BDD0FB;" d="M1581.384,1336.105c0,0.745-0.964,2.148-1.828,2.148h-547.046c-0.865,0-2.997-1.403-2.997-2.148
					v-1.993c0-0.745,2.132-0.121,2.997-0.121h547.046c0.865,0,1.828-0.624,1.828,0.121V1336.105z"/>
				<path style="fill:#BDD0FB;" d="M1592.037,1378.172c0,1.489-1.207,2.696-2.696,2.696h-344.055c-1.489,0-2.696-1.207-2.696-2.696
					v-1.001c0-1.489,1.207-2.696,2.696-2.696h344.055c1.489,0,2.696,1.207,2.696,2.696V1378.172z"/>
				<path style="fill:#BDD0FB;" d="M1419.204,688.619h-82.673V577.191c0-5.955-4.828-10.783-10.783-10.783h-28.756
					c-5.956,0-10.783,4.828-10.783,10.783v111.428h-86.267c-5.955,0-10.783,4.828-10.783,10.784v28.756
					c0,5.955,4.828,10.784,10.783,10.784h86.267v316.313c0,5.955,4.828,10.783,10.783,10.783h28.756
					c5.955,0,10.783-4.828,10.783-10.783V738.942h82.673c5.955,0,10.783-4.828,10.783-10.784v-28.756
					C1429.988,693.448,1425.16,688.619,1419.204,688.619z"/>
			</g>
			<g>
				<g>
					<path style="fill:#91B3FA;" d="M1027.382,1172.92c-1.177,0-2.131-0.953-2.131-2.131V870.35c0-1.178,0.954-2.131,2.131-2.131
						s2.131,0.953,2.131,2.131v300.439C1029.513,1171.967,1028.559,1172.92,1027.382,1172.92z"/>
				</g>
				<g>
					<path style="fill:#91B3FA;" d="M1027.382,825.604c-1.177,0-2.131-0.953-2.131-2.131V678.581c0-1.178,0.954-2.131,2.131-2.131
						s2.131,0.953,2.131,2.131v144.893C1029.513,824.651,1028.559,825.604,1027.382,825.604z"/>
				</g>
				<g>
					<path style="fill:#91B3FA;" d="M1027.382,552.865c-1.177,0-2.131-0.953-2.131-2.131v-80.969c0-1.178,0.954-2.131,2.131-2.131
						s2.131,0.953,2.131,2.131v80.969C1029.513,551.912,1028.559,552.865,1027.382,552.865z"/>
				</g>
			</g>
		</g>
		<g>
			<g>
				<g>
					<path style="fill:#BDD0FB;" d="M279.72,1238.134l487.419,0.001v-93.976l-487.419,0.001
						C290.153,1144.159,290.153,1238.134,279.72,1238.134z"/>
					
						<linearGradient id="SVGID_00000047770144715112741330000005869239295829445803_" gradientUnits="userSpaceOnUse" x1="264.8569" y1="1191.1465" x2="807.0328" y2="1191.1465">
						<stop  offset="0" style="stop-color:#FE7062"/>
						<stop  offset="1" style="stop-color:#FF928E"/>
					</linearGradient>
					<path style="fill:url(#SVGID_00000047770144715112741330000005869239295829445803_);" d="M767.139,1214.618v-43.008
						c0-15.161-9.632-27.451-21.514-27.451H281.776c-9.344,0-16.919-7.297-16.919-16.298c0-2.735,2.302-4.952,5.141-4.952h506.951
						c11.626,0,30.084,17.608,30.084,39.328v60.065c0,20.479-17.92,37.081-28.881,37.081H272.664c-4.312,0-7.807-3.367-7.807-7.521
						c0-7.582,6.381-13.728,14.251-13.728h469.6C758.888,1238.134,767.139,1227.606,767.139,1214.618z"/>
				</g>
				<path style="fill:#91B3FA;" d="M753.621,1165.572H296.6c-1.177,0-2.131-0.953-2.131-2.131c0-1.178,0.954-2.131,2.131-2.131
					h457.021c1.177,0,2.131,0.953,2.131,2.131C755.752,1164.619,754.798,1165.572,753.621,1165.572z"/>
				<path style="fill:#91B3FA;" d="M753.621,1179.52H296.6c-1.177,0-2.131-0.953-2.131-2.131c0-1.178,0.954-2.131,2.131-2.131
					h457.021c1.177,0,2.131,0.953,2.131,2.131C755.752,1178.567,754.798,1179.52,753.621,1179.52z"/>
				<path style="fill:#91B3FA;" d="M753.621,1193.47H296.6c-1.177,0-2.131-0.953-2.131-2.131s0.954-2.131,2.131-2.131h457.021
					c1.177,0,2.131,0.953,2.131,2.131S754.798,1193.47,753.621,1193.47z"/>
				<path style="fill:#91B3FA;" d="M753.621,1207.42H296.6c-1.177,0-2.131-0.953-2.131-2.131c0-1.178,0.954-2.131,2.131-2.131
					h457.021c1.177,0,2.131,0.953,2.131,2.131C755.752,1206.467,754.798,1207.42,753.621,1207.42z"/>
				<path style="fill:#91B3FA;" d="M753.621,1221.368H296.6c-1.177,0-2.131-0.953-2.131-2.131c0-1.178,0.954-2.131,2.131-2.131
					h457.021c1.177,0,2.131,0.953,2.131,2.131C755.752,1220.415,754.798,1221.368,753.621,1221.368z"/>
			</g>
			<g>
				
					<linearGradient id="SVGID_00000091697756110306994190000003751952588311121804_" gradientUnits="userSpaceOnUse" x1="798.1804" y1="878.1365" x2="498.2415" y2="1382.0343">
					<stop  offset="0" style="stop-color:#4042E2"/>
					<stop  offset="1" style="stop-color:#4F52FF"/>
				</linearGradient>
				<path style="fill:url(#SVGID_00000091697756110306994190000003751952588311121804_);" d="M835.169,1415.407H215.052
					c-8.395,0-15.201-6.806-15.201-15.201v-126.622c0-8.395,6.806-15.201,15.201-15.201h620.117c8.395,0,15.201,6.806,15.201,15.201
					v126.622C850.37,1408.601,843.564,1415.407,835.169,1415.407z"/>
				<path style="fill:#7D97F4;" d="M344.644,1397.36h-66.129c-2.842,0-5.146-2.304-5.146-5.146v-110.639
					c0-2.842,2.304-5.146,5.146-5.146h66.129c2.842,0,5.146,2.304,5.146,5.146v110.639
					C349.79,1395.056,347.486,1397.36,344.644,1397.36z"/>
				<path style="fill:#7D97F4;" d="M385.519,1397.36h-20.303c-2.312,0-4.186-1.874-4.186-4.186v-112.56
					c0-2.312,1.874-4.186,4.186-4.186h20.302c2.312,0,4.186,1.874,4.186,4.186v112.56
					C389.705,1395.486,387.831,1397.36,385.519,1397.36z"/>
			</g>
		</g>
		<g>
			<path style="fill:#FFFFFF;" d="M467.744,1079.713l2.708-5.807c0.254-0.544,0.9-0.779,1.444-0.525s0.779,0.9,0.525,1.444
				l-0.003,0.006l-0.006,0.013l-2.733,5.762l-0.006,0.013c-0.252,0.532-0.888,0.758-1.419,0.506
				C467.724,1080.875,467.497,1080.243,467.744,1079.713z"/>
			<path style="fill:#FFFFFF;" d="M477.072,1060.501l2.964-5.681c0.295-0.566,0.993-0.784,1.559-0.49
				c0.566,0.295,0.785,0.994,0.49,1.56l-0.004,0.006l-0.007,0.014l-2.987,5.635l-0.007,0.014c-0.294,0.553-0.98,0.765-1.534,0.471
				C476.995,1061.737,476.784,1061.054,477.072,1060.501z"/>
			<path style="fill:#FFFFFF;" d="M487.243,1041.721l3.211-5.545c0.339-0.586,1.089-0.786,1.674-0.446
				c0.586,0.339,0.785,1.088,0.446,1.674l-0.004,0.007l-0.008,0.014l-3.231,5.497l-0.008,0.014
				c-0.337,0.573-1.075,0.765-1.648,0.428C487.104,1043.027,486.912,1042.293,487.243,1041.721z"/>
			<path style="fill:#FFFFFF;" d="M498.227,1023.401l3.448-5.403c0.385-0.602,1.185-0.779,1.787-0.394
				c0.603,0.385,0.779,1.185,0.395,1.787l-0.005,0.007l-0.009,0.014l-3.465,5.352l-0.009,0.013c-0.382,0.591-1.171,0.76-1.761,0.377
				C498.02,1024.774,497.85,1023.99,498.227,1023.401z"/>
			<path style="fill:#FFFFFF;" d="M509.989,1005.567l3.676-5.251c0.432-0.617,1.282-0.767,1.899-0.335
				c0.617,0.432,0.767,1.283,0.335,1.9l-0.005,0.007l-0.01,0.013l-3.69,5.199l-0.01,0.013c-0.429,0.606-1.267,0.747-1.872,0.318
				C509.709,1007.005,509.566,1006.172,509.989,1005.567z"/>
			<path style="fill:#FFFFFF;" d="M522.497,988.247l3.893-5.093c0.481-0.628,1.38-0.748,2.009-0.267
				c0.629,0.481,0.749,1.38,0.268,2.008l-0.006,0.008l-0.011,0.013l-3.904,5.039l-0.011,0.014c-0.478,0.616-1.365,0.728-1.981,0.251
				C522.14,989.746,522.027,988.863,522.497,988.247z"/>
			<path style="fill:#FFFFFF;" d="M535.72,971.463l4.101-4.927c0.531-0.638,1.478-0.724,2.116-0.193
				c0.638,0.531,0.724,1.477,0.194,2.115l-0.006,0.007l-0.012,0.015l-4.109,4.872l-0.012,0.014
				c-0.527,0.625-1.462,0.704-2.088,0.177C535.281,973.018,535.2,972.089,535.72,971.463z"/>
			<path style="fill:#FFFFFF;" d="M549.624,955.236l4.299-4.756c0.582-0.644,1.576-0.694,2.22-0.112
				c0.644,0.583,0.694,1.576,0.112,2.22l-0.007,0.007l-0.013,0.015l-4.305,4.7l-0.013,0.015c-0.579,0.632-1.559,0.674-2.191,0.096
				C549.098,956.843,549.053,955.869,549.624,955.236z"/>
			<path style="fill:#FFFFFF;" d="M564.178,939.587l4.488-4.579c0.634-0.647,1.673-0.657,2.32-0.024
				c0.647,0.635,0.658,1.674,0.023,2.321l-0.007,0.007l-0.014,0.014l-4.49,4.523l-0.014,0.013c-0.63,0.635-1.656,0.639-2.291,0.008
				C563.561,941.243,563.555,940.223,564.178,939.587z"/>
			<path style="fill:#FFFFFF;" d="M579.351,924.534l4.668-4.397c0.688-0.647,1.77-0.615,2.418,0.073
				c0.648,0.688,0.615,1.77-0.072,2.417l-0.008,0.008l-0.015,0.013l-4.666,4.339l-0.015,0.014c-0.683,0.636-1.752,0.596-2.388-0.086
				C578.64,926.233,578.676,925.17,579.351,924.534z"/>
			<path style="fill:#FFFFFF;" d="M595.114,910.094l4.839-4.208c0.742-0.645,1.866-0.567,2.511,0.175
				c0.645,0.742,0.567,1.865-0.175,2.51l-0.009,0.007l-0.016,0.013l-4.834,4.15l-0.016,0.014c-0.737,0.634-1.847,0.548-2.48-0.188
				C594.304,911.834,594.385,910.729,595.114,910.094z"/>
			<path style="fill:#FFFFFF;" d="M611.435,896.288l5.001-4.016c0.796-0.639,1.96-0.512,2.599,0.284
				c0.639,0.796,0.512,1.96-0.284,2.599l-0.009,0.008l-0.017,0.012l-4.993,3.957l-0.017,0.014c-0.791,0.627-1.941,0.494-2.568-0.298
				C610.522,898.061,610.652,896.917,611.435,896.288z"/>
			<path style="fill:#FFFFFF;" d="M628.286,883.131l5.155-3.818c0.851-0.63,2.053-0.452,2.683,0.399s0.452,2.053-0.4,2.683
				l-0.01,0.007l-0.018,0.013l-5.143,3.758l-0.018,0.014c-0.846,0.618-2.033,0.433-2.651-0.413
				C627.268,884.932,627.449,883.751,628.286,883.131z"/>
			<path style="fill:#FFFFFF;" d="M645.64,870.639l5.3-3.614c0.907-0.619,2.143-0.385,2.762,0.521
				c0.619,0.907,0.385,2.143-0.522,2.762l-0.011,0.007l-0.019,0.013l-5.285,3.555l-0.019,0.012c-0.901,0.607-2.123,0.367-2.73-0.534
				C644.513,872.464,644.748,871.247,645.64,870.639z"/>
			<path style="fill:#FFFFFF;" d="M663.469,858.83l5.437-3.406c0.963-0.603,2.232-0.312,2.835,0.65
				c0.603,0.962,0.312,2.232-0.651,2.835l-0.011,0.007l-0.02,0.013l-5.419,3.346l-0.02,0.012c-0.957,0.591-2.211,0.294-2.802-0.662
				C662.229,860.672,662.522,859.424,663.469,858.83z"/>
			<path style="fill:#FFFFFF;" d="M681.745,847.721l5.566-3.193c1.018-0.585,2.318-0.233,2.902,0.785
				c0.584,1.019,0.232,2.318-0.786,2.903l-0.012,0.007l-0.022,0.011l-5.544,3.133l-0.022,0.013
				c-1.012,0.572-2.297,0.215-2.869-0.797C680.39,849.575,680.743,848.297,681.745,847.721z"/>
			<path style="fill:#FFFFFF;" d="M700.442,837.331l5.689-2.97c1.072-0.56,2.395-0.144,2.955,0.928
				c0.56,1.073,0.144,2.396-0.928,2.956l-0.009,0.004l-0.023,0.013l-5.658,2.918l-0.023,0.011c-1.067,0.552-2.379,0.132-2.93-0.935
				S699.375,837.881,700.442,837.331z"/>
			<path style="fill:#FFFFFF;" d="M719.544,827.7l5.803-2.743c1.113-0.525,2.442-0.049,2.968,1.063
				c0.526,1.113,0.05,2.442-1.063,2.968l-0.007,0.003l-0.024,0.011l-5.766,2.698l-0.024,0.011c-1.109,0.519-2.429,0.041-2.948-1.068
				C717.964,829.535,718.435,828.219,719.544,827.7z"/>
			<path style="fill:#FFFFFF;" d="M739.013,818.827l5.907-2.512c1.153-0.49,2.485,0.047,2.975,1.2c0.49,1.153-0.047,2.484-1.2,2.975
				l-0.008,0.003l-0.025,0.01l-5.867,2.47l-0.025,0.01c-1.148,0.483-2.471-0.056-2.955-1.205
				C737.333,820.63,737.864,819.311,739.013,818.827z"/>
			<path style="fill:#FFFFFF;" d="M758.818,810.728l6.003-2.275c1.191-0.452,2.523,0.148,2.975,1.339
				c0.452,1.192-0.148,2.524-1.339,2.976l-0.008,0.003l-0.026,0.009l-5.96,2.235l-0.026,0.009c-1.187,0.445-2.51-0.157-2.955-1.343
				C757.037,812.494,757.631,811.174,758.818,810.728z"/>
			<path style="fill:#FFFFFF;" d="M778.932,803.424l6.091-2.034c1.229-0.41,2.558,0.254,2.968,1.483s-0.253,2.558-1.482,2.968
				l-0.008,0.003l-0.027,0.008l-6.045,1.995l-0.027,0.008c-1.224,0.404-2.544-0.261-2.948-1.486
				C777.051,805.145,777.708,803.828,778.932,803.424z"/>
			<path style="fill:#FFFFFF;" d="M799.327,796.932l6.167-1.784c1.265-0.366,2.588,0.362,2.954,1.627
				c0.366,1.265-0.362,2.589-1.628,2.955l-0.008,0.002l-0.028,0.008l-6.117,1.746l-0.028,0.008c-1.26,0.36-2.574-0.37-2.934-1.63
				C797.345,798.603,798.066,797.292,799.327,796.932z"/>
			<path style="fill:#FFFFFF;" d="M819.969,791.276l6.237-1.53c1.3-0.319,2.613,0.475,2.932,1.776
				c0.319,1.299-0.476,2.612-1.776,2.932l-0.009,0.002l-0.029,0.007l-6.184,1.494l-0.029,0.007
				c-1.295,0.313-2.599-0.484-2.911-1.778C817.886,792.89,818.674,791.589,819.969,791.276z"/>
			<path style="fill:#FFFFFF;" d="M840.831,786.473l6.296-1.271c1.333-0.268,2.633,0.594,2.902,1.927
				c0.269,1.334-0.594,2.633-1.927,2.902l-0.009,0.002l-0.03,0.006l-6.24,1.236l-0.03,0.006c-1.328,0.263-2.618-0.6-2.881-1.929
				C838.648,788.024,839.503,786.736,840.831,786.473z"/>
			<path style="fill:#FFFFFF;" d="M861.878,782.545l6.345-1.005c1.365-0.216,2.646,0.715,2.862,2.08
				c0.216,1.365-0.715,2.647-2.08,2.862l-0.009,0.002l-0.031,0.004l-6.286,0.973l-0.031,0.004c-1.359,0.21-2.631-0.721-2.842-2.08
				C859.597,784.026,860.519,782.756,861.878,782.545z"/>
			<path style="fill:#FFFFFF;" d="M883.076,779.512l6.383-0.732c1.394-0.16,2.654,0.841,2.814,2.235
				c0.16,1.394-0.841,2.654-2.235,2.814l-0.009,0.001l-0.033,0.003l-6.321,0.702l-0.032,0.003c-1.388,0.155-2.639-0.846-2.793-2.234
				C880.697,780.915,881.688,779.666,883.076,779.512z"/>
			<path style="fill:#FFFFFF;" d="M904.388,777.392l6.41-0.455c1.421-0.101,2.655,0.97,2.756,2.391
				c0.101,1.421-0.97,2.655-2.391,2.756l-0.009,0.001l-0.034,0.002l-6.344,0.427l-0.034,0.002c-1.415,0.096-2.64-0.975-2.735-2.39
				C901.912,778.711,902.973,777.488,904.388,777.392z"/>
			<path style="fill:#FFFFFF;" d="M925.776,776.205l6.425-0.172c1.446-0.039,2.649,1.102,2.688,2.548
				c0.039,1.445-1.102,2.649-2.548,2.687l-0.01,0.001h-0.035l-6.356,0.147l-0.035,0.001c-1.44,0.033-2.634-1.107-2.667-2.546
				C923.206,777.432,924.336,776.238,925.776,776.205z"/>
			<path style="fill:#FFFFFF;" d="M947.198,775.967l6.424,0.111c1.468,0.026,2.637,1.237,2.611,2.704
				c-0.026,1.468-1.236,2.637-2.704,2.611h-0.01l-0.032-0.001l-6.358-0.134l-0.033-0.001c-1.461-0.03-2.62-1.24-2.59-2.701
				C944.537,777.096,945.737,775.936,947.198,775.967z"/>
			<path style="fill:#FFFFFF;" d="M968.602,776.642l6.413,0.368c1.487,0.085,2.623,1.36,2.538,2.847
				c-0.085,1.488-1.36,2.624-2.847,2.539l-0.01-0.001l-0.031-0.002l-6.349-0.388l-0.032-0.002c-1.48-0.091-2.607-1.363-2.516-2.843
				C965.858,777.678,967.121,776.552,968.602,776.642z"/>
			<path style="fill:#FFFFFF;" d="M989.958,778.159l6.394,0.614c1.504,0.145,2.606,1.481,2.462,2.985
				c-0.144,1.503-1.481,2.606-2.985,2.462l-0.01-0.001l-0.03-0.003l-6.33-0.63l-0.031-0.003c-1.497-0.15-2.59-1.484-2.44-2.981
				C987.137,779.104,988.461,778.01,989.958,778.159z"/>
			<path style="fill:#FFFFFF;" d="M1011.239,780.48l6.366,0.847c1.519,0.203,2.587,1.598,2.385,3.117
				c-0.202,1.519-1.598,2.586-3.117,2.385l-0.01-0.001l-0.029-0.004l-6.304-0.862l-0.029-0.004c-1.512-0.207-2.57-1.6-2.363-3.112
				C1008.344,781.333,1009.727,780.273,1011.239,780.48z"/>
			<path style="fill:#FFFFFF;" d="M1032.42,783.564l6.331,1.067c1.532,0.259,2.565,1.71,2.307,3.243
				c-0.258,1.533-1.71,2.566-3.242,2.307l-0.01-0.001l-0.028-0.005l-6.271-1.081l-0.028-0.005c-1.525-0.262-2.548-1.712-2.285-3.237
				C1029.455,784.327,1030.894,783.302,1032.42,783.564z"/>
			<path style="fill:#FFFFFF;" d="M1053.478,787.368l6.291,1.274c1.544,0.313,2.543,1.818,2.23,3.363
				c-0.313,1.544-1.818,2.542-3.363,2.23l-0.01-0.002l-0.026-0.006l-6.233-1.286l-0.027-0.005c-1.537-0.317-2.525-1.821-2.208-3.357
				C1050.449,788.041,1051.942,787.05,1053.478,787.368z"/>
			<path style="fill:#FFFFFF;" d="M1074.4,791.845l6.248,1.468c1.555,0.365,2.519,1.922,2.154,3.477
				c-0.365,1.554-1.922,2.519-3.477,2.154l-0.01-0.003l-0.025-0.005l-6.192-1.479l-0.025-0.005
				c-1.547-0.369-2.502-1.924-2.132-3.471C1071.309,792.432,1072.853,791.475,1074.4,791.845z"/>
			<path style="fill:#FFFFFF;" d="M1095.173,796.951l6.202,1.648c1.564,0.415,2.496,2.021,2.08,3.584
				c-0.416,1.565-2.021,2.496-3.585,2.081l-0.01-0.003l-0.024-0.006l-6.148-1.657l-0.024-0.006c-1.557-0.42-2.478-2.023-2.059-3.579
				C1092.024,797.456,1093.616,796.532,1095.173,796.951z"/>
			<path style="fill:#FFFFFF;" d="M1115.788,802.645l6.151,1.821c1.566,0.464,2.46,2.11,1.996,3.676
				c-0.464,1.567-2.109,2.461-3.676,1.997l-0.004-0.001l-0.022-0.006l-6.105-1.817l-0.022-0.006
				c-1.564-0.465-2.454-2.11-1.989-3.674C1112.583,803.071,1114.224,802.18,1115.788,802.645z"/>
			<path style="fill:#FFFFFF;" d="M1136.235,808.898l6.102,1.975c1.561,0.506,2.417,2.181,1.912,3.741
				c-0.505,1.561-2.18,2.417-3.741,1.911l-0.003-0.001l-0.021-0.006l-6.059-1.969l-0.021-0.007c-1.558-0.507-2.411-2.18-1.905-3.738
				C1133.007,809.246,1134.677,808.393,1136.235,808.898z"/>
			<path style="fill:#FFFFFF;" d="M1156.519,815.648l6.053,2.115c1.555,0.543,2.376,2.245,1.832,3.801
				c-0.544,1.555-2.245,2.375-3.801,1.832l-0.003-0.001l-0.019-0.007l-6.013-2.109l-0.019-0.006
				c-1.553-0.545-2.37-2.245-1.825-3.799C1153.269,815.922,1154.966,815.103,1156.519,815.648z"/>
			<path style="fill:#FFFFFF;" d="M1176.64,822.852l6.005,2.243c1.55,0.58,2.337,2.305,1.758,3.856
				c-0.579,1.55-2.305,2.338-3.856,1.758l-0.003-0.001l-0.017-0.006l-5.968-2.239l-0.017-0.006
				c-1.547-0.581-2.331-2.305-1.751-3.853C1173.371,823.057,1175.093,822.272,1176.64,822.852z"/>
			<path style="fill:#FFFFFF;" d="M1196.603,830.47l5.959,2.361c1.545,0.612,2.301,2.361,1.689,3.906
				c-0.612,1.545-2.361,2.301-3.906,1.69l-0.003-0.001l-0.016-0.006l-5.924-2.356l-0.016-0.006
				c-1.542-0.613-2.296-2.361-1.682-3.903C1193.317,830.612,1195.061,829.857,1196.603,830.47z"/>
			<path style="fill:#FFFFFF;" d="M1216.413,838.465l5.914,2.467c1.54,0.642,2.268,2.412,1.626,3.952
				c-0.642,1.541-2.412,2.269-3.952,1.626l-0.003-0.001l-0.014-0.006l-5.883-2.461l-0.014-0.006
				c-1.538-0.644-2.263-2.412-1.619-3.949C1213.11,838.548,1214.875,837.822,1216.413,838.465z"/>
			<path style="fill:#FFFFFF;" d="M1236.077,846.799l5.872,2.561c1.536,0.67,2.239,2.46,1.569,3.995
				c-0.67,1.537-2.459,2.239-3.995,1.569l-0.003-0.002l-0.013-0.005l-5.843-2.557l-0.013-0.005
				c-1.534-0.671-2.233-2.458-1.562-3.992C1232.76,846.829,1234.543,846.127,1236.077,846.799z"/>
			<path style="fill:#FFFFFF;" d="M1255.604,855.438l5.833,2.646c1.533,0.695,2.212,2.501,1.517,4.035
				c-0.695,1.533-2.502,2.212-4.035,1.516l-0.003-0.001l-0.011-0.005l-5.807-2.643l-0.011-0.005c-1.53-0.696-2.206-2.501-1.51-4.032
				C1252.272,855.418,1254.074,854.741,1255.604,855.438z"/>
			<path style="fill:#FFFFFF;" d="M1275.004,864.347l5.797,2.721c1.53,0.718,2.188,2.541,1.47,4.071
				c-0.718,1.53-2.541,2.189-4.071,1.47l-0.003-0.001l-0.01-0.005l-5.773-2.718l-0.01-0.005c-1.527-0.719-2.182-2.541-1.463-4.068
				C1271.659,864.285,1273.477,863.628,1275.004,864.347z"/>
			<path style="fill:#FFFFFF;" d="M1294.288,873.496l5.764,2.786c1.528,0.739,2.168,2.576,1.43,4.104s-2.577,2.168-4.105,1.43
				l-0.012-0.005l-5.743-2.785c-1.528-0.734-2.171-2.569-1.436-4.097C1290.92,873.401,1292.76,872.76,1294.288,873.496z"/>
			<path style="fill:#FFFFFF;" d="M1313.466,882.85l5.736,2.84c1.528,0.758,2.153,2.608,1.396,4.137
				c-0.757,1.527-2.608,2.153-4.136,1.395l-0.01-0.004l-5.719-2.841c-1.527-0.753-2.153-2.602-1.4-4.129
				C1310.088,882.721,1311.94,882.096,1313.466,882.85z"/>
			<path style="fill:#FFFFFF;" d="M1332.557,892.369l5.713,2.881c1.528,0.771,2.143,2.635,1.372,4.164
				c-0.771,1.528-2.635,2.142-4.163,1.371l-0.009-0.004l-5.699-2.883c-1.527-0.769-2.142-2.63-1.373-4.158
				C1329.167,892.214,1331.03,891.6,1332.557,892.369z"/>
			<path style="fill:#FFFFFF;" d="M1351.578,902.011l5.696,2.911c1.53,0.782,2.137,2.657,1.354,4.189
				c-0.782,1.53-2.657,2.136-4.188,1.354l-0.007-0.003l-5.684-2.915c-1.529-0.78-2.135-2.653-1.354-4.182
				C1348.176,901.836,1350.05,901.23,1351.578,902.011z"/>
			<path style="fill:#FFFFFF;" d="M1370.548,911.742l5.683,2.932c1.534,0.792,2.136,2.677,1.345,4.211
				c-0.791,1.535-2.676,2.136-4.21,1.345l-0.006-0.003l-5.675-2.936c-1.532-0.792-2.132-2.674-1.341-4.206
				C1367.134,911.553,1369.016,910.952,1370.548,911.742z"/>
			<path style="fill:#FFFFFF;" d="M1389.482,921.53l5.676,2.942c1.539,0.797,2.14,2.692,1.342,4.23
				c-0.797,1.539-2.691,2.139-4.23,1.342l-0.004-0.002l-5.671-2.948c-1.536-0.797-2.135-2.69-1.337-4.226
				C1386.056,921.332,1387.946,920.732,1389.482,921.53z"/>
			<path style="fill:#FFFFFF;" d="M1408.4,931.338l5.674,2.942c1.545,0.8,2.149,2.702,1.349,4.247
				c-0.801,1.545-2.702,2.148-4.247,1.348l-0.004-0.002l-5.672-2.949c-1.542-0.802-2.142-2.702-1.341-4.245
				C1404.96,931.138,1406.858,930.536,1408.4,931.338z"/>
			<path style="fill:#FFFFFF;" d="M1427.317,941.133l5.678,2.931c1.553,0.8,2.164,2.708,1.364,4.261
				c-0.8,1.553-2.708,2.164-4.262,1.364l-0.006-0.003l-5.679-2.94c-1.55-0.802-2.156-2.709-1.353-4.258
				C1423.862,940.938,1425.767,940.331,1427.317,941.133z"/>
			<path style="fill:#FFFFFF;" d="M1446.253,950.882l5.687,2.91c1.563,0.797,2.184,2.71,1.386,4.274
				c-0.797,1.563-2.711,2.184-4.274,1.386l-0.007-0.003l-5.691-2.922c-1.559-0.8-2.174-2.712-1.374-4.272
				C1442.781,950.697,1444.694,950.082,1446.253,950.882z"/>
			<path style="fill:#FFFFFF;" d="M1465.223,960.549l5.701,2.879c1.574,0.792,2.208,2.709,1.417,4.283
				c-0.791,1.573-2.709,2.208-4.283,1.417l-0.009-0.005l-5.708-2.891c-1.57-0.795-2.197-2.712-1.402-4.281
				C1461.735,960.381,1463.654,959.755,1465.223,960.549z"/>
			<path style="fill:#FFFFFF;" d="M1484.245,970.102l5.719,2.838c1.586,0.782,2.238,2.702,1.456,4.289
				c-0.782,1.587-2.703,2.238-4.289,1.456l-0.01-0.005l-5.73-2.852c-1.581-0.787-2.226-2.707-1.438-4.289
				C1480.74,969.957,1482.664,969.314,1484.245,970.102z"/>
			<path style="fill:#FFFFFF;" d="M1503.336,979.504l5.743,2.786c1.6,0.77,2.273,2.692,1.502,4.292
				c-0.771,1.6-2.692,2.272-4.292,1.502l-0.012-0.006l-5.756-2.801c-1.595-0.776-2.259-2.699-1.483-4.294
				C1499.814,979.388,1501.741,978.728,1503.336,979.504z"/>
			<path style="fill:#FFFFFF;" d="M1522.51,988.72l5.771,2.724l0.01,0.004c1.612,0.762,2.303,2.685,1.542,4.298
				c-0.761,1.613-2.685,2.302-4.298,1.542l-0.004-0.002l-5.788-2.739c-1.61-0.763-2.297-2.685-1.535-4.295
				c0.762-1.61,2.685-2.296,4.294-1.535L1522.51,988.72z"/>
			<path style="fill:#FFFFFF;" d="M1541.782,997.715l5.804,2.65l0.012,0.005c1.628,0.744,2.346,2.667,1.602,4.296
				c-0.744,1.628-2.667,2.345-4.295,1.601l-0.004-0.001l-5.825-2.669c-1.625-0.745-2.34-2.666-1.595-4.292
				c0.745-1.625,2.666-2.34,4.292-1.595L1541.782,997.715z"/>
			<path style="fill:#FFFFFF;" d="M1561.167,1006.453l5.838,2.565l0.014,0.006c1.646,0.723,2.393,2.643,1.671,4.289
				c-0.723,1.645-2.643,2.393-4.289,1.67l-0.004-0.001l-5.862-2.584c-1.643-0.724-2.387-2.643-1.663-4.285
				c0.724-1.643,2.643-2.387,4.285-1.663L1561.167,1006.453z"/>
			<path style="fill:#FFFFFF;" d="M1580.673,1014.893l5.878,2.47l0.016,0.006c1.664,0.699,2.446,2.614,1.747,4.277
				c-0.699,1.664-2.614,2.446-4.278,1.747l-0.004-0.001l-5.906-2.49c-1.661-0.7-2.44-2.614-1.74-4.275
				c0.7-1.661,2.614-2.439,4.275-1.74L1580.673,1014.893z"/>
			<path style="fill:#FFFFFF;" d="M1600.314,1023.003l5.92,2.362l0.017,0.007c1.682,0.671,2.502,2.579,1.831,4.263
				c-0.671,1.682-2.579,2.502-4.262,1.83l-0.004-0.001l-5.951-2.384c-1.68-0.672-2.496-2.579-1.824-4.258
				c0.673-1.68,2.579-2.497,4.259-1.824L1600.314,1023.003z"/>
			<path style="fill:#FFFFFF;" d="M1620.098,1030.741l5.964,2.243l0.019,0.007c1.702,0.64,2.563,2.539,1.923,4.241
				c-0.64,1.702-2.539,2.564-4.241,1.923l-0.004-0.001l-6-2.265c-1.699-0.642-2.557-2.54-1.915-4.239
				c0.641-1.699,2.539-2.557,4.239-1.915L1620.098,1030.741z"/>
			<path style="fill:#FFFFFF;" d="M1640.03,1038.071l6.006,2.119l0.021,0.008c1.717,0.605,2.618,2.489,2.012,4.205
				c-0.606,1.718-2.486,2.619-4.203,2.013l-6.05-2.129c-1.719-0.604-2.623-2.489-2.018-4.207c0.605-1.72,2.489-2.623,4.208-2.018
				l0.003,0.001L1640.03,1038.071z"/>
			<path style="fill:#FFFFFF;" d="M1660.103,1044.967l6.054,1.963l0.027,0.008c1.727,0.56,2.672,2.413,2.113,4.14
				c-0.56,1.726-2.41,2.673-4.137,2.113l-6.11-1.974c-1.729-0.559-2.677-2.413-2.119-4.142c0.559-1.728,2.413-2.677,4.142-2.118
				l0.003,0.001L1660.103,1044.967z"/>
			<path style="fill:#FFFFFF;" d="M1680.345,1051.302l6.108,1.783l0.028,0.008c1.737,0.507,2.734,2.326,2.227,4.063
				c-0.507,1.737-2.323,2.734-4.059,2.228l-6.166-1.794c-1.739-0.506-2.739-2.325-2.233-4.065c0.506-1.739,2.325-2.738,4.064-2.233
				l0.003,0.001L1680.345,1051.302z"/>
			<path style="fill:#FFFFFF;" d="M1700.765,1057.026l6.158,1.593l0.03,0.008c1.746,0.452,2.795,2.233,2.344,3.979
				c-0.452,1.746-2.23,2.796-3.976,2.344l-6.22-1.602c-1.748-0.449-2.8-2.232-2.35-3.98c0.45-1.748,2.232-2.801,3.98-2.35
				l0.003,0.001L1700.765,1057.026z"/>
			<path style="fill:#FFFFFF;" d="M1721.349,1062.104l6.205,1.39l0.032,0.007c1.754,0.393,2.857,2.134,2.464,3.887
				c-0.393,1.754-2.13,2.858-3.884,2.466l-6.271-1.398c-1.756-0.392-2.862-2.133-2.471-3.889c0.392-1.756,2.133-2.862,3.889-2.471
				l0.003,0.001L1721.349,1062.104z"/>
			<path style="fill:#FFFFFF;" d="M1742.086,1066.489l6.248,1.175l0.034,0.006c1.761,0.331,2.92,2.027,2.589,3.787
				s-2.023,2.92-3.784,2.59l-6.318-1.18c-1.763-0.33-2.925-2.026-2.595-3.789c0.329-1.762,2.026-2.925,3.788-2.596l0.003,0.001
				L1742.086,1066.489z"/>
			<path style="fill:#FFFFFF;" d="M1762.958,1070.135l6.285,0.943l0.037,0.005c1.766,0.265,2.983,1.911,2.719,3.678
				c-0.265,1.766-1.908,2.983-3.674,2.719l-6.359-0.947c-1.768-0.263-2.988-1.91-2.725-3.678c0.263-1.769,1.91-2.988,3.678-2.725
				h0.003L1762.958,1070.135z"/>
			<path style="fill:#FFFFFF;" d="M1783.946,1072.99l6.315,0.693l0.04,0.004c1.769,0.195,3.046,1.786,2.852,3.555
				c-0.194,1.77-1.783,3.047-3.552,2.853l-6.394-0.695c-1.771-0.193-3.051-1.784-2.858-3.556c0.193-1.772,1.785-3.052,3.556-2.859
				l0.003,0.001L1783.946,1072.99z"/>
			<path style="fill:#FFFFFF;" d="M1805.023,1074.992l6.336,0.426l0.042,0.002c1.77,0.12,3.109,1.65,2.99,3.421
				c-0.119,1.77-1.647,3.109-3.417,2.99l-6.421-0.425c-1.772-0.116-3.114-1.648-2.997-3.42c0.117-1.773,1.649-3.114,3.421-2.997
				l0.003,0.001L1805.023,1074.992z"/>
			<path style="fill:#FFFFFF;" d="M1826.158,1076.077l6.346,0.137h0.046c1.768,0.038,3.17,1.502,3.132,3.27
				c-0.038,1.769-1.499,3.171-3.267,3.133l-6.436-0.132c-1.77-0.036-3.175-1.5-3.139-3.27c0.036-1.77,1.5-3.174,3.27-3.139h0.003
				L1826.158,1076.077z"/>
			<path style="fill:#FFFFFF;" d="M1847.31,1076.176l6.341-0.174l0.049-0.001c1.762-0.048,3.229,1.341,3.277,3.103
				c0.048,1.763-1.338,3.229-3.1,3.277l-6.438,0.183c-1.764,0.05-3.234-1.339-3.284-3.103s1.339-3.234,3.103-3.283h0.003
				L1847.31,1076.176z"/>
			<path style="fill:#FFFFFF;" d="M1868.429,1075.216l6.32-0.507l0.052-0.004c1.751-0.14,3.284,1.166,3.425,2.917
				c0.14,1.751-1.163,3.283-2.914,3.424l-6.423,0.521c-1.753,0.141-3.289-1.164-3.431-2.917c-0.142-1.752,1.164-3.288,2.916-3.43
				h0.003L1868.429,1075.216z"/>
			<path style="fill:#FFFFFF;" d="M1889.454,1073.12l6.278-0.86l0.055-0.007c1.735-0.238,3.334,0.976,3.571,2.71
				c0.238,1.734-0.973,3.333-2.707,3.571l-6.387,0.882c-1.736,0.239-3.338-0.974-3.578-2.709c-0.24-1.736,0.974-3.339,2.71-3.578
				h0.003L1889.454,1073.12z"/>
			<path style="fill:#FFFFFF;" d="M1910.31,1069.819l6.212-1.236l0.058-0.011c1.711-0.34,3.375,0.771,3.716,2.482
				s-0.768,3.374-2.479,3.714l-6.326,1.266c-1.713,0.342-3.379-0.769-3.722-2.481c-0.343-1.713,0.768-3.379,2.481-3.722l0.003-0.001
				L1910.31,1069.819z"/>
			<path style="fill:#FFFFFF;" d="M1930.912,1065.244l6.116-1.63l0.06-0.016c1.681-0.448,3.406,0.551,3.854,2.232
				c0.448,1.681-0.549,3.405-2.229,3.854l-6.235,1.668c-1.682,0.45-3.41-0.548-3.86-2.231c-0.45-1.681,0.549-3.409,2.23-3.86
				l0.003-0.001L1930.912,1065.244z"/>
			<path style="fill:#FFFFFF;" d="M1951.161,1059.337l5.99-2.038l0.062-0.021c1.641-0.559,3.424,0.319,3.982,1.96
				c0.559,1.641-0.316,3.423-1.957,3.982l-6.111,2.086c-1.642,0.561-3.428-0.316-3.988-1.958c-0.561-1.643,0.316-3.428,1.958-3.989
				l0.003-0.001L1951.161,1059.337z"/>
			<path style="fill:#FFFFFF;" d="M1970.948,1052.059l5.829-2.454l0.062-0.026c1.592-0.671,3.426,0.077,4.097,1.669
				c0.67,1.592-0.074,3.425-1.666,4.095l-5.951,2.513c-1.593,0.673-3.43-0.073-4.102-1.667c-0.673-1.593,0.073-3.429,1.667-4.102
				l0.003-0.001L1970.948,1052.059z"/>
			<path style="fill:#FFFFFF;" d="M1990.159,1043.391l5.634-2.872l0.062-0.031c1.534-0.782,3.411-0.173,4.193,1.362
				c0.782,1.534,0.175,3.409-1.359,4.192l-5.754,2.94c-1.535,0.783-3.415,0.175-4.199-1.36c-0.784-1.535-0.176-3.415,1.359-4.198
				l0.003-0.002L1990.159,1043.391z"/>
			<path style="fill:#FFFFFF;" d="M2008.677,1033.337l5.404-3.284l0.059-0.036c1.466-0.891,3.377-0.424,4.268,1.042
				c0.891,1.467,0.427,3.376-1.039,4.268l-5.519,3.36c-1.467,0.894-3.381,0.429-4.274-1.038c-0.893-1.467-0.428-3.38,1.039-4.274
				l0.003-0.002L2008.677,1033.337z"/>
			<path style="fill:#FFFFFF;" d="M2026.4,1021.932l5.151-3.672l0.054-0.039c1.393-0.992,3.326-0.668,4.318,0.725
				c0.992,1.392,0.67,3.324-0.722,4.317l-5.256,3.753c-1.393,0.996-3.329,0.672-4.324-0.721c-0.995-1.393-0.672-3.328,0.721-4.323
				l0.003-0.002L2026.4,1021.932z"/>
			<path style="fill:#FFFFFF;" d="M2043.262,1009.273l4.884-4.024l0.049-0.041c1.315-1.084,3.26-0.897,4.344,0.418
				c1.084,1.315,0.899,3.259-0.416,4.342l-4.978,4.112c-1.316,1.086-3.262,0.9-4.349-0.415s-0.901-3.263,0.415-4.349l0.002-0.002
				L2043.262,1009.273z"/>
			<path style="fill:#FFFFFF;" d="M2059.217,995.474l4.605-4.346l0.044-0.042c1.235-1.166,3.182-1.109,4.347,0.126
				s1.112,3.18-0.124,4.345l-4.688,4.434c-1.235,1.167-3.184,1.113-4.352-0.122c-1.168-1.236-1.114-3.184,0.122-4.352l0.002-0.002
				L2059.217,995.474z"/>
			<path style="fill:#FFFFFF;" d="M2074.234,980.643l4.319-4.634l0.039-0.042c1.154-1.238,3.094-1.307,4.332-0.153
				c1.238,1.155,1.309,3.091,0.155,4.33l-4.393,4.723c-1.154,1.24-3.095,1.311-4.336,0.157c-1.241-1.154-1.311-3.095-0.157-4.336
				l0.002-0.002L2074.234,980.643z"/>
			<path style="fill:#FFFFFF;" d="M2088.292,964.888l4.029-4.892l0.035-0.042c1.072-1.303,2.997-1.489,4.299-0.416
				c1.302,1.073,1.49,2.995,0.418,4.297l-4.094,4.98c-1.072,1.305-2.999,1.493-4.303,0.421c-1.305-1.073-1.493-2.999-0.421-4.304
				l0.002-0.002L2088.292,964.888z"/>
			<path style="fill:#FFFFFF;" d="M2101.382,948.307l3.737-5.122l0.031-0.042c0.991-1.358,2.895-1.655,4.253-0.665
				s1.657,2.892,0.666,4.25l-3.793,5.21c-0.991,1.36-2.896,1.659-4.257,0.669c-1.36-0.991-1.66-2.896-0.669-4.256l0.002-0.002
				L2101.382,948.307z"/>
			<path style="fill:#FFFFFF;" d="M2113.498,930.991l3.444-5.326l0.028-0.042c0.91-1.407,2.787-1.809,4.194-0.9
				s1.811,2.785,0.901,4.192l-3.493,5.413c-0.91,1.409-2.789,1.813-4.198,0.904c-1.409-0.909-1.814-2.788-0.905-4.197l0.002-0.003
				L2113.498,930.991z"/>
			<path style="fill:#FFFFFF;" d="M2124.638,913.023l3.151-5.506l0.024-0.042c0.829-1.449,2.676-1.952,4.125-1.123
				c1.449,0.829,1.953,2.674,1.123,4.122l-3.194,5.593c-0.829,1.451-2.677,1.956-4.128,1.128c-1.451-0.829-1.956-2.677-1.127-4.128
				l0.001-0.003L2124.638,913.023z"/>
			<path style="fill:#FFFFFF;" d="M2134.8,894.479l2.857-5.666l0.021-0.042c0.749-1.486,2.561-2.082,4.046-1.333
				c1.486,0.749,2.083,2.557,1.334,4.043l-2.894,5.753c-0.749,1.488-2.561,2.086-4.049,1.338c-1.488-0.748-2.087-2.562-1.338-4.048
				l0.001-0.003L2134.8,894.479z"/>
			<path style="fill:#FFFFFF;" d="M2143.981,875.424l2.562-5.807l0.019-0.042c0.669-1.517,2.441-2.204,3.958-1.535
				s2.205,2.439,1.535,3.956l-2.594,5.893c-0.669,1.519-2.442,2.208-3.961,1.54c-1.519-0.669-2.208-2.442-1.54-3.961l0.001-0.003
				L2143.981,875.424z"/>
			<path style="fill:#FFFFFF;" d="M2152.176,855.923l2.265-5.929l0.016-0.043c0.589-1.543,2.318-2.316,3.862-1.726
				c1.543,0.589,2.317,2.315,1.728,3.859l-2.292,6.016c-0.589,1.545-2.318,2.32-3.864,1.732c-1.545-0.589-2.321-2.319-1.732-3.864
				l0.001-0.003L2152.176,855.923z"/>
			<path style="fill:#FFFFFF;" d="M2159.38,836.029l1.967-6.035l0.014-0.042c0.51-1.565,2.192-2.42,3.758-1.91
				c1.565,0.511,2.421,2.19,1.911,3.755l-1.989,6.122c-0.509,1.567-2.192,2.425-3.76,1.915c-1.567-0.509-2.425-2.192-1.916-3.759
				l0.001-0.003L2159.38,836.029z"/>
			<path style="fill:#FFFFFF;" d="M2165.59,815.801l1.669-6.125l0.012-0.042c0.431-1.584,2.063-2.517,3.646-2.085
				c1.583,0.431,2.517,2.06,2.086,3.643l-1.686,6.211c-0.43,1.586-2.063,2.521-3.648,2.091s-2.521-2.063-2.091-3.648l0.001-0.003
				L2165.59,815.801z"/>
			<path style="fill:#FFFFFF;" d="M2170.803,795.292l1.369-6.2l0.009-0.042c0.353-1.596,1.932-2.604,3.528-2.251
				s2.605,1.929,2.252,3.525l-1.382,6.285c-0.351,1.598-1.931,2.609-3.529,2.258c-1.598-0.352-2.609-1.931-2.258-3.529l0.001-0.003
				L2170.803,795.292z"/>
			<path style="fill:#FFFFFF;" d="M2175.018,774.552l1.074-6.258l0.007-0.042c0.275-1.602,1.797-2.678,3.399-2.403
				c1.602,0.275,2.679,1.789,2.404,3.392l-1.072,6.344c-0.271,1.607-1.795,2.691-3.402,2.419c-1.608-0.272-2.691-1.795-2.419-3.402
				l0.001-0.008L2175.018,774.552z"/>
			<path style="fill:#FFFFFF;" d="M2178.25,753.634l0.774-6.303l0.005-0.042c0.196-1.596,1.649-2.731,3.245-2.534
				c1.596,0.197,2.732,1.641,2.536,3.237l-0.766,6.388c-0.192,1.602-1.646,2.745-3.248,2.553c-1.602-0.192-2.745-1.647-2.553-3.248
				l0.001-0.009L2178.25,753.634z"/>
			<path style="fill:#FFFFFF;" d="M2180.481,732.585l0.473-6.333l0.003-0.042c0.119-1.586,1.5-2.776,3.086-2.657
				c1.586,0.119,2.776,1.492,2.658,3.078l-0.46,6.417c-0.114,1.592-1.497,2.789-3.089,2.676c-1.592-0.114-2.79-1.497-2.675-3.089
				l0.001-0.008L2180.481,732.585z"/>
			<path style="fill:#FFFFFF;" d="M2181.707,711.451l0.171-6.35l0.001-0.041c0.042-1.572,1.351-2.812,2.924-2.77
				c1.572,0.042,2.813,1.342,2.77,2.915l-0.154,6.431c-0.038,1.577-1.348,2.826-2.925,2.788c-1.578-0.037-2.826-1.347-2.788-2.926
				l0-0.008L2181.707,711.451z"/>
			<path style="fill:#FFFFFF;" d="M2181.924,690.28l-0.132-6.35l-0.001-0.041c-0.032-1.555,1.202-2.841,2.757-2.874
				c1.555-0.032,2.841,1.193,2.874,2.748l0.153,6.431c0.037,1.561-1.198,2.855-2.758,2.892c-1.56,0.037-2.855-1.198-2.892-2.758
				l0-0.008L2181.924,690.28z"/>
			<path style="fill:#FFFFFF;" d="M2181.131,669.123l-0.436-6.337l-0.003-0.039c-0.105-1.535,1.052-2.863,2.587-2.969
				c1.534-0.105,2.863,1.045,2.968,2.579l0.46,6.415c0.11,1.54-1.048,2.877-2.586,2.987c-1.539,0.11-2.876-1.048-2.987-2.587
				l-0.001-0.008L2181.131,669.123z"/>
			<path style="fill:#FFFFFF;" d="M2179.322,648.028l-0.741-6.308l-0.005-0.041c-0.177-1.51,0.903-2.877,2.412-3.054
				c1.51-0.178,2.876,0.894,3.054,2.403l0.769,6.387c0.182,1.514-0.897,2.889-2.412,3.072c-1.514,0.182-2.89-0.898-3.072-2.412
				l-0.001-0.008L2179.322,648.028z"/>
			<path style="fill:#FFFFFF;" d="M2176.495,627.045l-1.048-6.266l-0.007-0.039c-0.248-1.483,0.753-2.884,2.235-3.132
				c1.482-0.248,2.883,0.744,3.13,2.227l1.08,6.342c0.253,1.487-0.747,2.896-2.233,3.149c-1.486,0.254-2.896-0.746-3.149-2.233
				l-0.001-0.008L2176.495,627.045z"/>
			<path style="fill:#FFFFFF;" d="M2172.646,606.223l-1.354-6.206l-0.009-0.039c-0.316-1.451,0.603-2.884,2.053-3.2
				c1.451-0.316,2.882,0.595,3.198,2.046l1.39,6.28c0.322,1.455-0.596,2.895-2.051,3.217c-1.455,0.323-2.896-0.596-3.218-2.051
				l-0.001-0.008L2172.646,606.223z"/>
			<path style="fill:#FFFFFF;" d="M2167.772,585.619l-1.663-6.131l-0.01-0.039c-0.384-1.416,0.453-2.876,1.869-3.26
				c1.416-0.384,2.873,0.445,3.257,1.861l1.702,6.203c0.39,1.42-0.446,2.887-1.866,3.277c-1.42,0.389-2.887-0.446-3.277-1.867
				l-0.002-0.007L2167.772,585.619z"/>
			<path style="fill:#FFFFFF;" d="M2161.87,565.286l-1.971-6.039l-0.012-0.037c-0.45-1.379,0.302-2.86,1.681-3.31
				c1.378-0.451,2.857,0.294,3.307,1.673l2.014,6.109c0.455,1.382-0.295,2.87-1.677,3.326c-1.382,0.456-2.871-0.294-3.327-1.677
				l-0.003-0.007L2161.87,565.286z"/>
			<path style="fill:#FFFFFF;" d="M2154.941,545.28l-2.279-5.929l-0.015-0.038c-0.514-1.337,0.153-2.836,1.49-3.35
				c1.337-0.514,2.834,0.146,3.348,1.483l2.326,5.997c0.52,1.34-0.145,2.848-1.485,3.368c-1.34,0.519-2.848-0.146-3.368-1.486
				l-0.003-0.007L2154.941,545.28z"/>
			<path style="fill:#FFFFFF;" d="M2146.985,525.661l-2.586-5.801l-0.017-0.037c-0.576-1.291,0.004-2.806,1.296-3.381
				c1.292-0.576,2.803-0.003,3.379,1.289l2.637,5.868c0.582,1.294,0.004,2.816-1.291,3.398c-1.295,0.583-2.816,0.004-3.398-1.291
				l-0.003-0.006L2146.985,525.661z"/>
			<path style="fill:#FFFFFF;" d="M2138.007,506.492l-2.898-5.647l-0.02-0.039c-0.638-1.242-0.147-2.767,1.095-3.404
				c1.243-0.638,2.764-0.154,3.401,1.088l2.956,5.717c0.644,1.246,0.156,2.778-1.089,3.422c-1.245,0.644-2.777,0.156-3.421-1.089
				l-0.003-0.007L2138.007,506.492z"/>
			<path style="fill:#FFFFFF;" d="M2127.971,487.861l-3.212-5.478l-0.021-0.035c-0.698-1.189-0.299-2.72,0.891-3.417
				c1.189-0.697,2.715-0.305,3.413,0.884l3.27,5.539c0.704,1.192,0.308,2.729-0.884,3.432c-1.192,0.704-2.729,0.308-3.433-0.883
				l-0.004-0.007L2127.971,487.861z"/>
			<path style="fill:#FFFFFF;" d="M2116.924,469.8l-3.498-5.304l-0.021-0.032c-0.749-1.136-0.436-2.665,0.7-3.414
				c1.136-0.749,2.661-0.442,3.41,0.694l3.556,5.357c0.756,1.138,0.446,2.674-0.693,3.43c-1.138,0.755-2.674,0.445-3.43-0.693
				l-0.004-0.006L2116.924,469.8z"/>
			<path style="fill:#FFFFFF;" d="M2104.951,452.328l-3.763-5.123l-0.021-0.029c-0.795-1.082-0.562-2.604,0.521-3.4
				c1.083-0.795,2.601-0.568,3.396,0.515l3.821,5.17c0.802,1.084,0.572,2.613-0.512,3.415c-1.084,0.802-2.614,0.572-3.415-0.512
				l-0.004-0.006L2104.951,452.328z"/>
			<path style="fill:#FFFFFF;" d="M2092.116,435.471l-4.009-4.933l-0.022-0.027c-0.836-1.029-0.68-2.54,0.348-3.376
				c1.029-0.836,2.535-0.686,3.371,0.343l4.068,4.974c0.843,1.03,0.69,2.548-0.34,3.391c-1.03,0.842-2.548,0.69-3.391-0.34
				l-0.005-0.005L2092.116,435.471z"/>
			<path style="fill:#FFFFFF;" d="M2078.475,419.259l-4.244-4.734l-0.023-0.026c-0.873-0.974-0.791-2.47,0.182-3.343
				c0.973-0.873,2.466-0.797,3.338,0.177l4.304,4.771c0.879,0.975,0.802,2.478-0.173,3.358c-0.975,0.879-2.478,0.801-3.358-0.174
				l-0.005-0.005L2078.475,419.259z"/>
			<path style="fill:#FFFFFF;" d="M2064.063,403.721l-4.469-4.524l-0.024-0.024c-0.906-0.918-0.897-2.396,0.02-3.302
				c0.917-0.907,2.391-0.903,3.297,0.015l4.53,4.558c0.913,0.919,0.908,2.403-0.01,3.317c-0.919,0.913-2.403,0.908-3.316-0.01
				l-0.005-0.005L2064.063,403.721z"/>
			<path style="fill:#FFFFFF;" d="M2048.915,388.9l-4.684-4.299l-0.025-0.023c-0.937-0.861-1-2.317-0.139-3.254
				c0.86-0.936,2.312-1.004,3.249-0.143l4.748,4.33c0.944,0.861,1.011,2.324,0.15,3.268c-0.861,0.944-2.324,1.01-3.267,0.15
				l-0.005-0.005L2048.915,388.9z"/>
			<path style="fill:#FFFFFF;" d="M2033.054,374.845l-4.893-4.059l-0.027-0.022c-0.965-0.801-1.099-2.233-0.298-3.197
				c0.801-0.965,2.227-1.103,3.192-0.303l4.959,4.088c0.972,0.801,1.11,2.239,0.309,3.211c-0.801,0.972-2.238,1.11-3.21,0.309
				l-0.005-0.004L2033.054,374.845z"/>
			<path style="fill:#FFFFFF;" d="M2016.504,361.613l-5.096-3.801l-0.028-0.021c-0.991-0.739-1.195-2.141-0.456-3.133
				c0.739-0.991,2.136-1.2,3.127-0.46l5.165,3.827c0.998,0.739,1.207,2.146,0.468,3.144s-2.147,1.207-3.145,0.468l-0.005-0.004
				L2016.504,361.613z"/>
			<path style="fill:#FFFFFF;" d="M1999.286,349.268l-5.293-3.519l-0.031-0.021c-1.015-0.674-1.29-2.043-0.616-3.058
				c0.675-1.015,2.038-1.294,3.053-0.62l5.364,3.544c1.021,0.674,1.302,2.05,0.628,3.07c-0.675,1.021-2.049,1.303-3.07,0.627
				l-0.006-0.003L1999.286,349.268z"/>
			<path style="fill:#FFFFFF;" d="M1981.42,337.887l-5.478-3.219l-0.033-0.02c-1.032-0.607-1.376-1.934-0.77-2.965
				c0.604-1.028,1.926-1.373,2.956-0.776l5.561,3.229c1.043,0.605,1.397,1.941,0.792,2.984c-0.605,1.044-1.942,1.397-2.985,0.792
				l-0.01-0.005L1981.42,337.887z"/>
			<path style="fill:#FFFFFF;" d="M1962.945,327.534l-5.66-2.886l-0.035-0.018c-1.038-0.53-1.45-1.8-0.921-2.837
				c0.528-1.034,1.791-1.447,2.827-0.926l5.745,2.891c1.049,0.529,1.471,1.806,0.943,2.856c-0.528,1.049-1.806,1.471-2.855,0.943
				l-0.01-0.005L1962.945,327.534z"/>
			<path style="fill:#FFFFFF;" d="M1943.878,318.329l-5.83-2.523l-0.037-0.017c-1.04-0.45-1.518-1.657-1.068-2.698
				c0.448-1.036,1.65-1.514,2.688-1.072l5.917,2.523c1.051,0.447,1.54,1.664,1.092,2.714c-0.448,1.051-1.664,1.54-2.715,1.091
				l-0.01-0.004L1943.878,318.329z"/>
			<path style="fill:#FFFFFF;" d="M1924.261,310.374l-5.984-2.126l-0.039-0.013c-1.038-0.369-1.58-1.51-1.212-2.547
				c0.367-1.034,1.502-1.576,2.536-1.215l6.074,2.12c1.049,0.366,1.602,1.514,1.236,2.563c-0.366,1.049-1.513,1.602-2.562,1.236
				l-0.01-0.004L1924.261,310.374z"/>
			<path style="fill:#FFFFFF;" d="M1904.149,303.784l-6.119-1.694l-0.041-0.011c-1.031-0.286-1.635-1.353-1.35-2.384
				c0.284-1.027,1.346-1.631,2.373-1.353l6.211,1.683c1.042,0.282,1.657,1.356,1.375,2.397c-0.282,1.041-1.356,1.657-2.397,1.374
				l-0.01-0.002L1904.149,303.784z"/>
			<path style="fill:#FFFFFF;" d="M1883.616,298.672l-6.228-1.228l-0.043-0.008c-1.018-0.201-1.681-1.189-1.48-2.208
				c0.2-1.014,1.183-1.676,2.197-1.482l6.321,1.21c1.029,0.198,1.703,1.191,1.506,2.22c-0.197,1.029-1.191,1.703-2.22,1.505
				l-0.01-0.002L1883.616,298.672z"/>
			<path style="fill:#FFFFFF;" d="M1862.755,295.151l-6.306-0.73l-0.044-0.005c-0.999-0.115-1.716-1.02-1.6-2.02
				c0.115-0.996,1.014-1.71,2.01-1.601l6.398,0.707c1.01,0.112,1.738,1.021,1.626,2.03c-0.112,1.01-1.02,1.739-2.03,1.626
				l-0.01-0.001L1862.755,295.151z"/>
			<path style="fill:#FFFFFF;" d="M1841.682,293.32l-6.345-0.208l-0.045-0.002c-0.974-0.032-1.737-0.847-1.705-1.821
				c0.032-0.971,0.842-1.732,1.812-1.706l6.435,0.177c0.984,0.026,1.759,0.846,1.732,1.829c-0.027,0.984-0.846,1.759-1.83,1.732
				h-0.01L1841.682,293.32z"/>
			<path style="fill:#FFFFFF;" d="M1820.498,293.172l-6.361,0.204l-0.029,0.001c-0.945,0.03-1.735-0.712-1.765-1.656
				c-0.03-0.945,0.703-1.734,1.647-1.765l6.417-0.237c0.953-0.034,1.754,0.71,1.79,1.663c0.035,0.953-0.709,1.754-1.662,1.789
				h-0.008L1820.498,293.172z"/>
			<path style="fill:#FFFFFF;" d="M1799.317,294.274l-6.335,0.577l-0.031,0.002c-0.913,0.083-1.72-0.589-1.803-1.502
				c-0.083-0.912,0.581-1.719,1.494-1.802l6.394-0.613c0.921-0.088,1.739,0.587,1.827,1.508c0.088,0.921-0.586,1.738-1.507,1.827
				l-0.008,0.001L1799.317,294.274z"/>
			<path style="fill:#FFFFFF;" d="M1778.254,296.672l-6.28,0.994l-0.034,0.005c-0.877,0.138-1.7-0.46-1.839-1.337
				c-0.139-0.876,0.452-1.698,1.328-1.837l6.343-1.035c0.885-0.144,1.719,0.456,1.863,1.341c0.144,0.884-0.456,1.719-1.34,1.862
				l-0.008,0.002L1778.254,296.672z"/>
			<path style="fill:#FFFFFF;" d="M1757.417,300.515l-6.185,1.46l-0.037,0.008c-0.836,0.198-1.674-0.32-1.871-1.156
				c-0.197-0.835,0.313-1.672,1.149-1.87l6.251-1.508c0.843-0.203,1.692,0.315,1.896,1.159c0.203,0.843-0.315,1.692-1.159,1.896
				l-0.007,0.001L1757.417,300.515z"/>
			<path style="fill:#FFFFFF;" d="M1736.958,305.976l-6.034,1.981l-0.039,0.012c-0.789,0.259-1.638-0.171-1.897-0.959
				c-0.259-0.789,0.163-1.635,0.952-1.895l6.103-2.036c0.796-0.266,1.656,0.163,1.921,0.959s-0.164,1.656-0.96,1.922l-0.007,0.002
				L1736.958,305.976z"/>
			<path style="fill:#FFFFFF;" d="M1717.085,313.239l-5.808,2.558l-0.042,0.018c-0.733,0.324-1.59-0.009-1.913-0.743
				s0.003-1.587,0.737-1.909l5.879-2.624c0.74-0.331,1.607,0.002,1.937,0.742c0.33,0.74-0.002,1.607-0.742,1.936l-0.007,0.003
				L1717.085,313.239z"/>
			<path style="fill:#FFFFFF;" d="M1698.074,322.49l-5.483,3.188l-0.044,0.025c-0.668,0.389-1.524,0.162-1.912-0.506
				c-0.388-0.668-0.168-1.521,0.5-1.909l5.554-3.266c0.673-0.396,1.54-0.171,1.936,0.503c0.396,0.673,0.171,1.541-0.502,1.936
				l-0.006,0.004L1698.074,322.49z"/>
			<path style="fill:#FFFFFF;" d="M1680.291,333.889l-5.029,3.856l-0.044,0.033c-0.59,0.454-1.436,0.341-1.888-0.249
				c-0.453-0.59-0.346-1.432,0.244-1.884l5.097-3.948c0.595-0.461,1.451-0.353,1.911,0.242c0.461,0.595,0.352,1.451-0.243,1.912
				l-0.005,0.004L1680.291,333.889z"/>
			<path style="fill:#FFFFFF;" d="M1664.195,347.538l-4.422,4.534l-0.041,0.043c-0.499,0.512-1.319,0.521-1.831,0.023
				c-0.512-0.499-0.527-1.315-0.027-1.827l4.482-4.64c0.503-0.521,1.332-0.536,1.853-0.032c0.521,0.503,0.535,1.332,0.032,1.853
				l-0.005,0.004L1664.195,347.538z"/>
			<path style="fill:#FFFFFF;" d="M1650.318,363.415l-3.648,5.174l-0.036,0.051c-0.395,0.561-1.171,0.695-1.731,0.3
				c-0.561-0.395-0.699-1.165-0.303-1.726l3.693-5.295c0.398-0.57,1.182-0.71,1.752-0.312c0.57,0.397,0.71,1.182,0.312,1.752
				l-0.004,0.005L1650.318,363.415z"/>
			<path style="fill:#FFFFFF;" d="M1639.208,381.328l-2.719,5.716l-0.027,0.056c-0.282,0.594-0.993,0.847-1.587,0.564
				c-0.594-0.282-0.849-0.987-0.566-1.581l2.744-5.842c0.283-0.603,1.002-0.862,1.605-0.58c0.603,0.283,0.862,1.002,0.579,1.604
				l-0.003,0.006L1639.208,381.328z"/>
			<path style="fill:#FFFFFF;" d="M1631.336,400.879l-1.682,6.104l-0.016,0.057c-0.167,0.607-0.794,0.962-1.4,0.796
				c-0.606-0.168-0.964-0.789-0.797-1.395l1.684-6.229c0.166-0.615,0.8-0.979,1.415-0.813c0.615,0.167,0.979,0.8,0.813,1.415
				l-0.001,0.006L1631.336,400.879z"/>
			<path style="fill:#FFFFFF;" d="M1626.981,421.51l-0.609,6.307l-0.005,0.055c-0.058,0.597-0.589,1.034-1.186,0.977
				c-0.597-0.058-1.035-0.584-0.978-1.181l0.588-6.42c0.056-0.607,0.592-1.053,1.198-0.998c0.606,0.056,1.053,0.592,0.997,1.199
				l0,0.005L1626.981,421.51z"/>
		</g>
		<g>
			
				<linearGradient id="SVGID_00000003826941217574935440000017737452144641579956_" gradientUnits="userSpaceOnUse" x1="750.2675" y1="994.3489" x2="787.1556" y2="994.3489">
				<stop  offset="0" style="stop-color:#53D8FF"/>
				<stop  offset="1" style="stop-color:#3840F7"/>
			</linearGradient>
			<path style="fill:url(#SVGID_00000003826941217574935440000017737452144641579956_);" d="M749.831,966.05
				c0,0,3.273,29.831,14.333,35.691c-20.369,13.85-30.167,20.906-30.167,20.906l-6.721-40.697L749.831,966.05z"/>
			
				<linearGradient id="SVGID_00000088094233682974089720000009612661617106155909_" gradientUnits="userSpaceOnUse" x1="928.347" y1="1041.5184" x2="802.3533" y2="1245.5084">
				<stop  offset="0" style="stop-color:#FF928E"/>
				<stop  offset="1" style="stop-color:#FEB3B1"/>
			</linearGradient>
			<path style="fill:url(#SVGID_00000088094233682974089720000009612661617106155909_);" d="M952.557,1251.894
				c-0.222-0.085-119.355-208.716-135.453-228.35c-2.709-3.302-6.9-4.984-11.141-4.478l-33.253,3.962l-39.064,84.51l65.08-37.901
				c-6.44,44.537,77.164,110.725,105.837,134.876c2.91,2.452,3.149,6.842,0.521,9.592l-11.447,11.983
				c18.793,19.049,40.479,31.281,64.954,36.938L952.557,1251.894z"/>
			
				<linearGradient id="SVGID_00000158745806241823891770000004958123673923879845_" gradientUnits="userSpaceOnUse" x1="918.6494" y1="1294.3888" x2="881.1514" y2="1457.8804">
				<stop  offset="0" style="stop-color:#4042E2"/>
				<stop  offset="1" style="stop-color:#4F52FF"/>
			</linearGradient>
			<path style="fill:url(#SVGID_00000158745806241823891770000004958123673923879845_);" d="M900.258,1219.621
				c0,0-7.305,2.36-9.78,8.866c-1.183,3.113,0.093,6.639,2.8,8.579c12.03,8.619,51.711,36.444,70.022,41.894
				c1.501,0.447,2.929-0.911,2.592-2.441c-0.94-4.254-3.979-12.749-13.772-25.184l0.879,1.776c1.112,2.249-1.337,4.591-3.522,3.357
				C937.229,1249.556,912.283,1234.423,900.258,1219.621z"/>
			
				<linearGradient id="SVGID_00000113354791276922267380000010379033785841620872_" gradientUnits="userSpaceOnUse" x1="951.2003" y1="860.8438" x2="900.2028" y2="994.3371">
				<stop  offset="0" style="stop-color:#FF928E"/>
				<stop  offset="1" style="stop-color:#FEB3B1"/>
			</linearGradient>
			<path style="fill:url(#SVGID_00000113354791276922267380000010379033785841620872_);" d="M906.154,1303.099
				c-0.2-0.128-18.073-43.192-18.274-43.32c-16.388-99.779-56.372-185.232-68.164-207.718c-1.984-3.782-5.748-6.277-10.004-6.64
				l-33.366-2.848l-55.359,74.855l71.404-23.946c-15.32,42.312,53.159,124.05,76.351,153.504c2.353,2.989,1.699,7.337-1.431,9.499
				l-13.635,9.418c14.549,22.458,33.31,38.825,56.134,49.319L906.154,1303.099z"/>
			
				<linearGradient id="SVGID_00000095339445820602539820000002584439632749275794_" gradientUnits="userSpaceOnUse" x1="-4923.3047" y1="-5403.5093" x2="-4937.7222" y2="-5182.4419" gradientTransform="matrix(-0.7895 -0.6137 -0.6137 0.7895 -6355.6802 2595.0203)">
				<stop  offset="0" style="stop-color:#4042E2"/>
				<stop  offset="1" style="stop-color:#4F52FF"/>
			</linearGradient>
			<path style="fill:url(#SVGID_00000095339445820602539820000002584439632749275794_);" d="M861.469,1260.91
				c0,0-7.632,0.832-11.371,6.704c-1.789,2.809-1.254,6.521,1.005,8.968c10.037,10.875,43.266,46.154,60.095,55.197
				c1.38,0.742,3.053-0.299,3.032-1.865c-0.059-4.356-1.318-13.291-8.391-27.451l0.501,1.918c0.633,2.427-2.239,4.225-4.129,2.575
				C891.616,1297.707,870.249,1277.839,861.469,1260.91z"/>
			<g>
				
					<linearGradient id="SVGID_00000046300910218492570520000004180754298413736639_" gradientUnits="userSpaceOnUse" x1="6358.9165" y1="2548.0229" x2="6312.4189" y2="2716.0146" gradientTransform="matrix(1 0 0 1 -6063.6484 0)">
					<stop  offset="0" style="stop-color:#4042E2"/>
					<stop  offset="1" style="stop-color:#4F52FF"/>
				</linearGradient>
				<path style="fill:url(#SVGID_00000046300910218492570520000004180754298413736639_);" d="M620.164,1026.808
					c0,0-30.184,44.895-32.661,65.373c-2.476,20.479,8.346,27.561,39.939,30.172c94.014,7.772,140.358-20.404,140.358-20.404
					c6.432-41.005,3.594-44.475,57.306-66.77c0,0-0.251-13.217-13.925-18.522C797.509,1011.35,620.164,1026.808,620.164,1026.808z"
					/>
			</g>
			
				<linearGradient id="SVGID_00000083802830717957716640000015903118431970150794_" gradientUnits="userSpaceOnUse" x1="-460.7278" y1="1129.041" x2="-675.3862" y2="1307.5072" gradientTransform="matrix(-0.9712 0.2381 0.2381 0.9712 -259.0316 -247.5876)">
				<stop  offset="0" style="stop-color:#09005D"/>
				<stop  offset="1" style="stop-color:#1A0F91"/>
			</linearGradient>
			<path style="fill:url(#SVGID_00000083802830717957716640000015903118431970150794_);" d="M751.008,828.242
				c17.126-0.142,34.95,4.352,42.25-5.861c10.737-15.021-5.603-55.816-32.992-66.437c-28.592-11.087-48.477,18.753-79.035,7.813
				c-23.871-8.547-22.029-30.443-44.28-46.965c-36.914-27.411-110.565-18.078-138.106,18.44
				c-45.022,59.698,32.259,193.274,90.825,194.885C641.621,931.544,670.564,828.907,751.008,828.242z"/>
			
				<linearGradient id="SVGID_00000113352641120258106170000016392406837755213209_" gradientUnits="userSpaceOnUse" x1="14661.8545" y1="872.3939" x2="14219.085" y2="1299.4908" gradientTransform="matrix(1 0 0 1 -13895.3486 0)">
				<stop  offset="0" style="stop-color:#FE7062"/>
				<stop  offset="1" style="stop-color:#FF928E"/>
			</linearGradient>
			<path style="fill:url(#SVGID_00000113352641120258106170000016392406837755213209_);" d="M701.793,1020.864
				c0,0,35.149-33.469,52.451-55.638c9.352-11.983,12.29-27.759,7.965-42.331c-7.9-26.613-21.938-54.177-23.218-58.467
				c-1.963-6.576-41.374-6.302-41.374-6.302s-77.555,50.333-108.026,135.595l34.222,10.654c0,0,20.249-33.972,40.257-55.571
				c0,0-34.62,45.735-35.839,64.458L701.793,1020.864z"/>
			
				<linearGradient id="SVGID_00000035504222540448386800000017392041298361929403_" gradientUnits="userSpaceOnUse" x1="753.6462" y1="790.0074" x2="681.6497" y2="922.0008">
				<stop  offset="0" style="stop-color:#FF928E"/>
				<stop  offset="1" style="stop-color:#FEB3B1"/>
			</linearGradient>
			<path style="fill:url(#SVGID_00000035504222540448386800000017392041298361929403_);" d="M724.704,810.74l-26.488,49.257
				c1.749,10.752,28.83,11.055,33.013,4.635c0.425-0.653,0.669-1.409,0.831-2.172l15.845-32.911
				c0.681-3.21-8.118-14.023-11.013-15.565l-10.529-5.604C722.308,806.222,739.225,806.052,724.704,810.74z"/>
			<g>
				
					<linearGradient id="SVGID_00000060011624026060384750000010134335547168703898_" gradientUnits="userSpaceOnUse" x1="-9216.5449" y1="1735.3265" x2="-9213.5449" y2="1586.8339" gradientTransform="matrix(-0.5458 -0.8379 -0.8379 0.5458 -6564.1128 -5306.4175)">
					<stop  offset="0" style="stop-color:#FF928E"/>
					<stop  offset="1" style="stop-color:#FEB3B1"/>
				</linearGradient>
				<path style="fill:url(#SVGID_00000060011624026060384750000010134335547168703898_);" d="M778.312,799.18
					c0,0,2.99,16.642-10.09,37.801c-13.08,21.159-26.105,20.203-32.722,12.657c-6.617-7.546-14.543-20.113-10.937-41.217
					C728.169,787.318,773.794,777.959,778.312,799.18z"/>
				
					<linearGradient id="SVGID_00000102524932205741062090000000900795284077035686_" gradientUnits="userSpaceOnUse" x1="154.6069" y1="-10497.9063" x2="-55.9933" y2="-10322.8145" gradientTransform="matrix(-0.5458 -0.8379 -0.8379 0.5458 -6564.1128 -5306.4175)">
					<stop  offset="0" style="stop-color:#09005D"/>
					<stop  offset="1" style="stop-color:#1A0F91"/>
				</linearGradient>
				<path style="fill:url(#SVGID_00000102524932205741062090000000900795284077035686_);" d="M740.397,810.715
					c0,0,21.18-27.819,37.44-3.568l-0.274,8.377c0,0,12.151,6.694,9.858-12.795c-2.293-19.489-10.562-40.485-34.494-33.827
					c-23.932,6.659-37.916,14.242-40.618,30.858c-2.703,16.615,10.865,13.901,10.865,13.901s5.182-11.465,11.44-12.248
					c6.258-0.783,3.997,8.286,3.997,8.286L740.397,810.715z"/>
				
					<linearGradient id="SVGID_00000098219647452410849080000008725928497421928364_" gradientUnits="userSpaceOnUse" x1="-9192.4551" y1="1735.8121" x2="-9189.4551" y2="1587.3197" gradientTransform="matrix(-0.5458 -0.8379 -0.8379 0.5458 -6564.1128 -5306.4175)">
					<stop  offset="0" style="stop-color:#FF928E"/>
					<stop  offset="1" style="stop-color:#FEB3B1"/>
				</linearGradient>
				<path style="fill:url(#SVGID_00000098219647452410849080000008725928497421928364_);" d="M735.536,809.973
					c0,0,10.971-14.237,0.985-17.191c-9.986-2.955-9.614,13.95-8.963,20.238L735.536,809.973z"/>
			</g>
			<path style="fill:#91B3FA;" d="M647.704,813.371c0.323,0,0.645-0.004,0.968-0.014c12.633-0.379,25.599-6.512,39.636-18.748
				c21.86-19.059,30.186-22.186,47.457-22.186c0.503,0,1.011,0.003,1.531,0.009l0.005-0.703c-0.489-0.004-0.971-0.007-1.447-0.007
				c-17.282,0-26.114,3.268-48.007,22.357c-13.91,12.125-26.731,18.201-39.197,18.575c-13.445,0.397-27.458-7.858-38.392-22.672
				c-4.768-6.461-8.758-13.608-12.615-20.522c-3.616-6.478-7.355-13.178-11.737-19.32c-3.192-4.475-8.245-10.817-15.253-14.224
				c-6.974-3.397-14.918-3.07-20.234,0.823l0.415,0.569c5.108-3.744,12.765-4.041,19.512-0.76
				c6.863,3.339,11.841,9.589,14.989,14.002c4.359,6.109,8.088,12.793,11.694,19.255c3.869,6.931,7.869,14.1,12.663,20.596
				C620.503,805.049,634.305,813.371,647.704,813.371z"/>
			<path style="fill:#91B3FA;" d="M643.654,831.082c1.324,0,2.631-0.074,3.917-0.224c8.219-0.954,17.799-5.975,20.675-15.041
				l-0.67-0.212c-2.782,8.766-12.093,13.627-20.086,14.555c-10.339,1.199-21.997-2.555-32.843-10.568
				c-7.15-5.28-13.435-11.823-19.514-18.151c-2.013-2.095-4.096-4.263-6.18-6.354c-9.171-9.198-19.165-17.701-29.707-25.273
				c-6.982-5.015-14.576-9.627-22.91-9.627c-0.278,0-0.557,0.006-0.837,0.015c-4.996,0.187-10.213,2.913-13.29,6.944
				c-2.373,3.109-3.245,6.683-2.454,10.066l0.684-0.16c-0.741-3.174,0.087-6.542,2.33-9.48c2.954-3.871,7.963-6.488,12.758-6.668
				c8.474-0.31,16.198,4.37,23.31,9.479c10.511,7.55,20.477,16.029,29.62,25.2c2.078,2.086,4.158,4.251,6.17,6.344
				c6.098,6.349,12.405,12.914,19.603,18.229C623.875,827.283,634.174,831.082,643.654,831.082z"/>
			<path style="fill:#91B3FA;" d="M635.353,841.689c3.214,0,6.469-0.633,9.589-2.209l-0.316-0.629
				c-11.187,5.652-24.588-1.584-29.829-4.959c-5.877-3.783-11.395-8.394-16.73-12.851c-8.819-7.369-17.939-14.989-28.869-18.998
				c-5.593-2.054-10.726-2.724-15.254-1.996c-5.584,0.899-10.298,4.034-12.611,8.387l0.62,0.329
				c2.211-4.16,6.735-7.158,12.103-8.022c4.397-0.707,9.419-0.049,14.9,1.961c10.814,3.967,19.886,11.547,28.659,18.878
				c5.353,4.472,10.887,9.095,16.8,12.902C619.188,837.554,627.138,841.689,635.353,841.689z"/>
			<g>
				
					<linearGradient id="SVGID_00000157268328628167393500000011351391857443408562_" gradientUnits="userSpaceOnUse" x1="873.8939" y1="927.1289" x2="579.766" y2="1210.8457">
					<stop  offset="0" style="stop-color:#09005D"/>
					<stop  offset="1" style="stop-color:#1A0F91"/>
				</linearGradient>
				<path style="fill:url(#SVGID_00000157268328628167393500000011351391857443408562_);" d="M845.405,911.274
					c-0.399-0.941-1.301-1.571-2.322-1.622c-1.021-0.051-1.981,0.486-2.472,1.382l-64.322,117.341l28.447,11.529l62.466-57.954
					l5.306-5.424L845.405,911.274z"/>
				
					<linearGradient id="SVGID_00000161611934437699146230000017893621764585031827_" gradientUnits="userSpaceOnUse" x1="781.0838" y1="949.5043" x2="867.2027" y2="949.5043">
					<stop  offset="0" style="stop-color:#DAE3FE"/>
					<stop  offset="1" style="stop-color:#E9EFFD"/>
				</linearGradient>
				<path style="fill:url(#SVGID_00000161611934437699146230000017893621764585031827_);" d="M836.995,914.003
					c-0.386-0.884-1.219-1.49-2.178-1.586c-0.959-0.096-1.894,0.335-2.448,1.124l-51.285,73.064l86.119-9.368
					C864.207,975.889,843.43,928.738,836.995,914.003z"/>
				<path style="fill:#FFFFFF;" d="M800.873,931.979c-0.564-0.429-1.276-0.615-1.978-0.519c-0.702,0.097-1.337,0.469-1.764,1.035
					l-10.187,13.491l76.325,33.426L800.873,931.979z"/>
				
					<linearGradient id="SVGID_00000048488595438495070330000016631425674054353062_" gradientUnits="userSpaceOnUse" x1="910.1057" y1="621.1515" x2="859.1005" y2="798.1691">
					<stop  offset="0" style="stop-color:#09005D"/>
					<stop  offset="1" style="stop-color:#1A0F91"/>
				</linearGradient>
				<path style="fill:url(#SVGID_00000048488595438495070330000016631425674054353062_);" d="M792.475,933.732
					c-0.601-0.388-1.332-0.518-2.03-0.362c-0.698,0.157-1.303,0.587-1.681,1.194l-55.752,89.666
					c-0.47,0.756-0.532,1.696-0.165,2.507c0.367,0.811,1.114,1.385,1.992,1.532l69.897,11.635l62.466-57.954L792.475,933.732z"/>
				
					<linearGradient id="SVGID_00000075873402628507352100000018378565971908306866_" gradientUnits="userSpaceOnUse" x1="872.6994" y1="970.8511" x2="844.5491" y2="998.0051">
					<stop  offset="0" style="stop-color:#09005D"/>
					<stop  offset="1" style="stop-color:#1A0F91"/>
				</linearGradient>
				<polygon style="fill:url(#SVGID_00000075873402628507352100000018378565971908306866_);" points="860.619,977.702 
					869.161,968.468 872.508,976.527 867.203,981.95 				"/>
			</g>
			
				<linearGradient id="SVGID_00000071556882368343644660000013248045803764494759_" gradientUnits="userSpaceOnUse" x1="695.952" y1="833.2518" x2="685.4526" y2="930.7468">
				<stop  offset="0" style="stop-color:#FF928E"/>
				<stop  offset="1" style="stop-color:#FEB3B1"/>
			</linearGradient>
			<path style="fill:url(#SVGID_00000071556882368343644660000013248045803764494759_);" d="M768.764,1034.072l-26.411-28.736
				l-30.503,8.214c0,0-35.56,5.509-55.913,0c-20.353-5.509-20.353-5.509-20.353-5.509l-45.993-14.319l-7.223,20.414
				c-1.834,5.183,0.009,10.937,4.49,14.122c3.979,2.827,8.643,5.935,11.616,7.235c6.057,2.65,139.526,0.838,139.526,0.838
				L768.764,1034.072z"/>
		</g>
		<g>
			
				<linearGradient id="SVGID_00000134240860891640740270000001463756517882279352_" gradientUnits="userSpaceOnUse" x1="1919.3246" y1="256.2873" x2="1862.4329" y2="373.5537" gradientTransform="matrix(0.987 0.1608 -0.1608 0.987 -46.6743 443.2292)">
				<stop  offset="0" style="stop-color:#09005D"/>
				<stop  offset="1" style="stop-color:#1A0F91"/>
			</linearGradient>
			<path style="fill:url(#SVGID_00000134240860891640740270000001463756517882279352_);" d="M1697.204,1103.493
				c-0.291,0.551-18.586,14.014-18.586,14.014s4.04,28.905,20.447,40.319c18.038,12.549,43.513-10.336,43.513-10.336
				s20.273,4.819,31.055-37.383c2.473-9.682-11.805-10.501-29.037-8.717C1722.374,1103.688,1697.204,1103.493,1697.204,1103.493z"/>
			
				<linearGradient id="SVGID_00000114790312923780823580000012754548018472500367_" gradientUnits="userSpaceOnUse" x1="1722.583" y1="1184.3357" x2="1740.6918" y2="1732.1213">
				<stop  offset="0" style="stop-color:#FE7062"/>
				<stop  offset="1" style="stop-color:#FF928E"/>
			</linearGradient>
			<path style="fill:url(#SVGID_00000114790312923780823580000012754548018472500367_);" d="M1663.007,1202.107
				c7.157-4.921,15.071-8.631,23.46-10.915c3.151-0.858,20.166,4.087,30.683,3.846c14.438-0.332,29.134-6.902,41.035-3.937
				c11.822,2.945,21.497,6.793,27.084,10.767c16.722,11.893,26.54,34.07,32.523,56.037c-11.33,11.63-25.586,16.798-25.586,16.798
				l-2.635,106.775l-63.138,32.304l-72.065-36.181l2.582-104.344c0,0-22.884-10.657-24.563-14.534
				C1630.708,1254.847,1642.817,1215.989,1663.007,1202.107z"/>
			
				<linearGradient id="SVGID_00000110464621175054740190000016314138062990211752_" gradientUnits="userSpaceOnUse" x1="1617.7844" y1="1235.3989" x2="1737.7645" y2="1525.2209">
				<stop  offset="0" style="stop-color:#FF928E"/>
				<stop  offset="1" style="stop-color:#FEB3B1"/>
			</linearGradient>
			<path style="fill:url(#SVGID_00000110464621175054740190000016314138062990211752_);" d="M1633.453,1258.258
				c0,0-30.665,85.018,39.264,119.96c14.521-1.929,8.936-26.043,8.936-26.043s-30.385-6.724-21.26-77.646
				C1651.991,1267.618,1633.453,1258.258,1633.453,1258.258z"/>
			
				<linearGradient id="SVGID_00000132799578706981942130000014591079412587909024_" gradientUnits="userSpaceOnUse" x1="-7233.5552" y1="1234.776" x2="-7113.5752" y2="1524.598" gradientTransform="matrix(-1 0 0 1 -5403.0742 0)">
				<stop  offset="0" style="stop-color:#FF928E"/>
				<stop  offset="1" style="stop-color:#FEB3B1"/>
			</linearGradient>
			<path style="fill:url(#SVGID_00000132799578706981942130000014591079412587909024_);" d="M1816.317,1258.258
				c0,0,21.101,88.747-39.264,119.96c-14.521-1.929-8.935-26.043-8.935-26.043s24.488-12.06,21.259-77.646
				C1797.779,1267.618,1816.317,1258.258,1816.317,1258.258z"/>
			
				<linearGradient id="SVGID_00000008827678252722025060000004468574614158300090_" gradientUnits="userSpaceOnUse" x1="1708.9015" y1="1121.2269" x2="1744.8997" y2="1308.7179">
				<stop  offset="0" style="stop-color:#FF928E"/>
				<stop  offset="1" style="stop-color:#FEB3B1"/>
			</linearGradient>
			<path style="fill:url(#SVGID_00000008827678252722025060000004468574614158300090_);" d="M1686.467,1191.193
				c0,0,6.38,27.648,37.356,27.074c31.55-0.574,34.363-27.165,34.363-27.165l-20.609-4.41l-1.723-22.964l-31.001,2.296
				l-0.574,21.816L1686.467,1191.193z"/>
			
				<linearGradient id="SVGID_00000065758672035988013260000014182419616789053091_" gradientUnits="userSpaceOnUse" x1="1720.0146" y1="1085.4857" x2="1732.0139" y2="1175.4812">
				<stop  offset="0" style="stop-color:#FF928E"/>
				<stop  offset="1" style="stop-color:#FEB3B1"/>
			</linearGradient>
			<path style="fill:url(#SVGID_00000065758672035988013260000014182419616789053091_);" d="M1709.205,1098.665
				c0,0-35.527,68.818,6.616,85.513c29.725,11.777,48.363-45.7,42.804-61.267c-8.595-24.07-14.255-21.214-14.255-21.214
				L1709.205,1098.665z"/>
			
				<linearGradient id="SVGID_00000098940577406953573420000003569379157121792683_" gradientUnits="userSpaceOnUse" x1="1919.7413" y1="239.7834" x2="1855.726" y2="371.7334" gradientTransform="matrix(0.987 0.1608 -0.1608 0.987 -46.6743 443.2292)">
				<stop  offset="0" style="stop-color:#09005D"/>
				<stop  offset="1" style="stop-color:#1A0F91"/>
			</linearGradient>
			<path style="fill:url(#SVGID_00000098940577406953573420000003569379157121792683_);" d="M1767.175,1092.403
				c17.551,4.824,2.551,42.888-23.873,33.886c-26.424-9.001-36.807-8.869-40.925-1.614c-4.118,7.256-5.002,33.023-13.937,20.287
				c-9.795-13.963-15.256-41.989-3.247-51.024c10.733-8.074,13.238-20.593,26.111-20.159c17.087,0.576,30.302-6.998,38.015-1.536
				C1758.177,1078.517,1754.261,1088.854,1767.175,1092.403z"/>
			
				<linearGradient id="SVGID_00000165937575566963860340000003990049920621277829_" gradientUnits="userSpaceOnUse" x1="1690.3547" y1="1089.4403" x2="1702.354" y2="1179.436">
				<stop  offset="0" style="stop-color:#FF928E"/>
				<stop  offset="1" style="stop-color:#FEB3B1"/>
			</linearGradient>
			<path style="fill:url(#SVGID_00000165937575566963860340000003990049920621277829_);" d="M1700.752,1130.593
				c0,0-7.577-8.152-8.79,1.673c-1.213,9.826,2.681,22.481,7.243,15.544C1703.767,1140.874,1700.752,1130.593,1700.752,1130.593z"/>
			<g>
				<g>
					<path style="fill:#FFFFFF;" d="M1805.106,1264.035c-1.022-0.77-2.605-1.015-3.835-0.662l-80.859,23.187l-79.986-23.17
						c-1.231-0.357-3.904-0.114-4.93,0.656c-1.024,0.77-2.974,1.977-2.974,3.259v4.167l87.362,29.577l87.362-24.78v-8.978
						C1807.246,1266.011,1806.129,1264.806,1805.106,1264.035z"/>
					<g>
						
							<linearGradient id="SVGID_00000104681999044697595590000011485350244234926523_" gradientUnits="userSpaceOnUse" x1="1677.6718" y1="1248.1698" x2="1670.1788" y2="1551.6398">
							<stop  offset="0" style="stop-color:#09005D"/>
							<stop  offset="1" style="stop-color:#1A0F91"/>
						</linearGradient>
						<path style="fill:url(#SVGID_00000104681999044697595590000011485350244234926523_);" d="M1718.817,1286.56l-83.337-19.811
							c-1.227-0.292-2.521,0.001-3.502,0.793c-0.981,0.793-1.541,1.995-1.515,3.256l1.902,92.78
							c0.039,1.904,1.391,3.527,3.256,3.909l85.329,17.495L1718.817,1286.56z"/>
						
							<linearGradient id="SVGID_00000022530480064840676840000006337677712274467720_" gradientUnits="userSpaceOnUse" x1="884.2694" y1="1248.1698" x2="876.7765" y2="1551.6398" gradientTransform="matrix(-1 0 0 1 2650.7339 0)">
							<stop  offset="0" style="stop-color:#09005D"/>
							<stop  offset="1" style="stop-color:#1A0F91"/>
						</linearGradient>
						<path style="fill:url(#SVGID_00000022530480064840676840000006337677712274467720_);" d="M1725.319,1286.56l83.337-19.811
							c1.227-0.292,2.52,0.001,3.502,0.793c0.982,0.793,1.541,1.995,1.515,3.256l-1.902,92.78c-0.039,1.904-1.391,3.527-3.256,3.909
							l-85.329,17.495L1725.319,1286.56z"/>
						
							<linearGradient id="SVGID_00000096778000602095902480000012710568521000061353_" gradientUnits="userSpaceOnUse" x1="1670.4462" y1="1484.9241" x2="1722.3577" y2="1322.8981">
							<stop  offset="0" style="stop-color:#09005D"/>
							<stop  offset="1" style="stop-color:#1A0F91"/>
						</linearGradient>
						<path style="fill:url(#SVGID_00000096778000602095902480000012710568521000061353_);" d="M1728.407,1286.881
							c0-2.251-1.825-4.076-4.076-4.076h-11.025c-2.251,0-4.076,1.825-4.076,4.076v94.126c0,2.251,1.825,4.076,4.076,4.076h11.025
							c2.251,0,4.076-1.825,4.076-4.076V1286.881z"/>
						<path style="fill:#91B3FA;" d="M1792.168,1312.957l-13.988,2.253l-0.333-19.137c-0.018-1.03-0.85-1.726-1.858-1.555
							l-4.854,0.823c-1.003,0.17-1.799,1.14-1.778,2.165l0.385,19.063l-14.33,2.308c-0.983,0.158-1.759,1.101-1.733,2.105
							l0.124,4.839c0.026,1,0.84,1.685,1.821,1.531l14.291-2.252l1.062,52.545c0.02,0.972,0.826,1.652,1.802,1.52l4.724-0.639
							c0.981-0.133,1.762-1.031,1.745-2.006l-0.919-52.745l13.949-2.198c1.011-0.159,1.821-1.114,1.809-2.133l-0.06-4.929
							C1794.014,1313.491,1793.182,1312.794,1792.168,1312.957z"/>
					</g>
				</g>
				
					<linearGradient id="SVGID_00000144310815743364642160000003201927315679655852_" gradientUnits="userSpaceOnUse" x1="1710.9028" y1="1269.2706" x2="1662.403" y2="1299.2705">
					<stop  offset="0" style="stop-color:#FF928E"/>
					<stop  offset="1" style="stop-color:#FEB3B1"/>
				</linearGradient>
				<path style="fill:url(#SVGID_00000144310815743364642160000003201927315679655852_);" d="M1648.305,1301.906
					c-1.855-4.87-11.747,0.522-15.112,2.532c-0.248,0.148-0.554,0.161-0.813,0.035c-0.26-0.126-0.438-0.375-0.474-0.662
					l-0.915-7.229l-3.153,6.889c-5.047,7.453-0.981,25.773-0.981,25.773c1.222,7.995,10.655,5.468,17.664,3.089
					C1651.53,1329.954,1650.548,1307.794,1648.305,1301.906z"/>
				
					<linearGradient id="SVGID_00000117676936384909909800000010233245887080921757_" gradientUnits="userSpaceOnUse" x1="1881.6689" y1="1198.5753" x2="1847.1707" y2="1252.5725">
					<stop  offset="0" style="stop-color:#FF928E"/>
					<stop  offset="1" style="stop-color:#FEB3B1"/>
				</linearGradient>
				<path style="fill:url(#SVGID_00000117676936384909909800000010233245887080921757_);" d="M1795.835,1301.906
					c1.855-4.87,11.747,0.522,15.112,2.532c0.248,0.148,0.553,0.161,0.813,0.035c0.26-0.126,0.438-0.375,0.474-0.662l0.915-7.229
					l3.153,6.889c5.047,7.453,0.981,25.773,0.981,25.773c-1.223,7.995-10.655,5.468-17.664,3.089
					C1792.611,1329.954,1793.592,1307.794,1795.835,1301.906z"/>
			</g>
			<g>
				
					<linearGradient id="SVGID_00000092431818484020978510000000437235192626998915_" gradientUnits="userSpaceOnUse" x1="1805.4741" y1="1389.3663" x2="1871.0392" y2="1389.3663" gradientTransform="matrix(1 0.0077 -0.0077 1 1.5937 21.5723)">
					<stop  offset="0" style="stop-color:#09005D"/>
					<stop  offset="1" style="stop-color:#1A0F91"/>
				</linearGradient>
				<path style="fill:url(#SVGID_00000092431818484020978510000000437235192626998915_);" d="M1852.719,1411.91
					c-15.845-3.637-52.466-1.682-52.466-1.682l-1.489,4.034l-2.467,20.05c0,0,34.876,6.286,52.066,6.271
					c1.754-0.002,3.358-0.265,4.824-0.721c0.524-0.47,1.036-0.958,1.521-1.487
					C1862.001,1430.409,1859.895,1418.708,1852.719,1411.91z"/>
				
					<linearGradient id="SVGID_00000034793776723912911470000014924567742695980449_" gradientUnits="userSpaceOnUse" x1="1839.6449" y1="1306.6243" x2="1770.4366" y2="1494.0825">
					<stop  offset="0" style="stop-color:#FF928E"/>
					<stop  offset="1" style="stop-color:#FEB3B1"/>
				</linearGradient>
				<path style="fill:url(#SVGID_00000034793776723912911470000014924567742695980449_);" d="M1789.73,1409.099l6.201,0.265
					c3.332,0.142,6.472,1.765,8.712,4.504c2.24,2.739,3.392,6.362,3.196,10.054c-0.156,2.943-1.364,5.696-3.356,7.649
					c-1.992,1.953-4.603,2.945-7.256,2.756l-9.489-0.675L1789.73,1409.099z"/>
			</g>
			<g>
				
					<linearGradient id="SVGID_00000083053306956307327210000000113463626176891021_" gradientUnits="userSpaceOnUse" x1="1598.3271" y1="1430.1091" x2="1631.8271" y2="1405.1091">
					<stop  offset="0" style="stop-color:#09005D"/>
					<stop  offset="1" style="stop-color:#1A0F91"/>
				</linearGradient>
				<path style="fill:url(#SVGID_00000083053306956307327210000000113463626176891021_);" d="M1581.214,1409.981
					c15.929-3.15,52.488-0.071,52.488-0.071l1.388,4.078l1.966,20.118c0,0-35.019,5.213-52.203,4.67
					c-1.753-0.055-3.351-0.367-4.804-0.868c-0.512-0.486-1.012-0.99-1.483-1.534
					C1571.474,1428.189,1573.872,1416.557,1581.214,1409.981z"/>
				
					<linearGradient id="SVGID_00000086665513873130939470000018400314312722282391_" gradientUnits="userSpaceOnUse" x1="1700.9854" y1="1250.1329" x2="1631.7404" y2="1437.6906">
					<stop  offset="0" style="stop-color:#FF928E"/>
					<stop  offset="1" style="stop-color:#FEB3B1"/>
				</linearGradient>
				<path style="fill:url(#SVGID_00000086665513873130939470000018400314312722282391_);" d="M1644.249,1409.104l-6.206,0.074
					c-3.334,0.04-6.513,1.566-8.821,4.235c-2.308,2.669-3.549,6.255-3.446,9.952c0.083,2.947,1.221,5.735,3.163,7.749
					c1.943,2.013,4.528,3.085,7.185,2.977l9.501-0.384L1644.249,1409.104z"/>
			</g>
			
				<linearGradient id="SVGID_00000018206841948777983020000010323218762641861283_" gradientUnits="userSpaceOnUse" x1="1721.5775" y1="1460.8755" x2="1627.0818" y2="1709.8635">
				<stop  offset="0" style="stop-color:#4042E2"/>
				<stop  offset="1" style="stop-color:#4F52FF"/>
			</linearGradient>
			<path style="fill:url(#SVGID_00000018206841948777983020000010323218762641861283_);" d="M1857.151,1349.054
				c-7.186-16.538-24.76-19.223-39.719-11.49c-0.26,0.342-94.993,48.893-178.536,70.172c2.392,7.667,3.621,15.826,3.89,23.845
				c0.048,1.787,0.018,3.549-0.087,5.287c64.066-3.29,133.596-24.656,193.344-43.433
				C1854.569,1387.462,1865.115,1367.384,1857.151,1349.054z"/>
			
				<linearGradient id="SVGID_00000121277001381701193160000002428359505521377937_" gradientUnits="userSpaceOnUse" x1="1656.1589" y1="1169.5789" x2="1669.6583" y2="1252.0747">
				<stop  offset="0" style="stop-color:#4042E2"/>
				<stop  offset="1" style="stop-color:#4F52FF"/>
			</linearGradient>
			<path style="fill:url(#SVGID_00000121277001381701193160000002428359505521377937_);" d="M1790.186,1432.838
				c-0.25-9.243,1.547-17.848,5.391-25.814c0.11-0.365,0.242-0.715,0.358-1.075c-4.771-1.478-10.934-3.48-19.03-6.226
				c-59.324-20.302-104.582-40.802-147.775-64.4c-16.78-9.167-35.859-3.023-41.23,16.832c-4.795,17.724,5.735,32.857,21.716,38.175
				c47.813,15.91,22.918,11.491,38.534,16.516c41.936,12.968,94.122,24.78,142.135,28.006
				C1790.25,1434.18,1790.208,1433.508,1790.186,1432.838z"/>
		</g>
		<g>
			<g>
				<path style="fill:#BDD0FB;" d="M605.599,453.224l-284.481-1.585c-11.646-0.065-18.88,12.634-12.885,22.619l1.428,2.379
					c2.699,4.496,7.559,7.246,12.802,7.246h283.053c8.247,0,14.932-6.686,14.932-14.933v-0.795
					C620.448,459.941,613.813,453.269,605.599,453.224z"/>
				<path style="fill:#BDD0FB;" d="M645.338,468.487v0.463c0,8.247,6.685,14.933,14.932,14.933h63.151
					c6.762,0,12.681-4.545,14.426-11.078l0,0c2.522-9.438-4.548-18.715-14.317-18.787l-63.152-0.463
					C652.091,453.495,645.338,460.198,645.338,468.487z"/>
			</g>
			<g>
				<path style="fill:#BDD0FB;" d="M537.167,506.826l-216.049-1.585c-11.646-0.065-18.88,12.634-12.885,22.619l1.428,2.379
					c2.699,4.496,7.559,7.246,12.802,7.246h214.621c8.247,0,14.932-6.686,14.932-14.933v-0.794
					C552.017,513.544,545.382,506.872,537.167,506.826z"/>
				<path style="fill:#BDD0FB;" d="M576.906,522.09v0.463c0,8.247,6.686,14.933,14.933,14.933h63.151
					c6.762,0,12.681-4.544,14.427-11.078l0,0c2.521-9.438-4.549-18.715-14.317-18.787l-63.152-0.463
					C583.659,507.098,576.906,513.8,576.906,522.09z"/>
			</g>
		</g>
		<g>
			<g>
				<path style="fill:#91B3FA;" d="M2096.084,1052.394l-287.028-1.599c-11.75-0.066-19.049,12.747-13.001,22.821l1.441,2.4
					c2.723,4.536,7.626,7.311,12.917,7.311H2096c8.321,0,15.066-6.745,15.066-15.066v-0.802
					C2111.066,1059.172,2104.372,1052.44,2096.084,1052.394z"/>
				<path style="fill:#91B3FA;" d="M2136.179,1067.795v0.467c0,8.321,6.745,15.066,15.066,15.066h63.717
					c6.823,0,12.794-4.585,14.556-11.177l0,0c2.544-9.522-4.589-18.883-14.445-18.955l-63.717-0.467
					C2142.992,1052.668,2136.179,1059.431,2136.179,1067.795z"/>
			</g>
			<g>
				<path style="fill:#91B3FA;" d="M2027.04,1106.477l-217.983-1.599c-11.75-0.065-19.049,12.747-13.001,22.821l1.441,2.4
					c2.723,4.536,7.626,7.311,12.917,7.311h216.542c8.321,0,15.066-6.746,15.066-15.066v-0.801
					C2042.022,1113.255,2035.328,1106.523,2027.04,1106.477z"/>
				<path style="fill:#91B3FA;" d="M2067.134,1121.877v0.467c0,8.321,6.746,15.066,15.066,15.066h63.717
					c6.823,0,12.795-4.585,14.556-11.177l0,0c2.544-9.522-4.59-18.883-14.445-18.955l-63.717-0.467
					C2073.948,1106.75,2067.134,1113.513,2067.134,1121.877z"/>
			</g>
		</g>
		<g>
			
				<linearGradient id="SVGID_00000060736275572858288030000007323736187771565982_" gradientUnits="userSpaceOnUse" x1="1893.4906" y1="880.2277" x2="1907.5616" y2="880.2277">
				<stop  offset="0" style="stop-color:#FF928E"/>
				<stop  offset="1" style="stop-color:#FEB3B1"/>
			</linearGradient>
			<path style="fill:url(#SVGID_00000060736275572858288030000007323736187771565982_);" d="M1907.562,900.385
				c0,0-18.156-15.054-13.221-30.63c0,0,0.533-14.915,4.528-7.724C1902.864,869.222,1907.562,900.385,1907.562,900.385z"/>
			
				<linearGradient id="SVGID_00000127760483914069905360000004631913011560520086_" gradientUnits="userSpaceOnUse" x1="-1486.2954" y1="900.5208" x2="-1559.5596" y2="900.5208" gradientTransform="matrix(1 0 0 1 3461.998 0)">
				<stop  offset="0" style="stop-color:#FF928E"/>
				<stop  offset="1" style="stop-color:#FEB3B1"/>
			</linearGradient>
			<path style="fill:url(#SVGID_00000127760483914069905360000004631913011560520086_);" d="M1902.438,889.561
				c0,0,0,84.712,37.139,77.806c22.691-4.22,36.126-95.475,36.126-95.475s-23.477-52.294-26.099-35.177
				C1930.545,961.148,1916.35,865.911,1902.438,889.561z"/>
			
				<linearGradient id="SVGID_00000058568386812211752520000011484040015604479645_" gradientUnits="userSpaceOnUse" x1="2644.0535" y1="1254.3059" x2="2645.9846" y2="1466.7046" gradientTransform="matrix(-1 0 0 1 4604.2964 0)">
				<stop  offset="0" style="stop-color:#4042E2"/>
				<stop  offset="1" style="stop-color:#4F52FF"/>
			</linearGradient>
			<path style="fill:url(#SVGID_00000058568386812211752520000011484040015604479645_);" d="M2002.184,1392.378
				c0,0,2.805,15.876,4.179,31.591c0.538,6.142-4.198,11.475-10.358,11.732c-20.928,0.871-65.694,2.567-81.758,1.849
				c-2.415-0.108-3.993-2.58-3.1-4.826l0,0c0.749-1.882,2.194-3.404,4.034-4.25l73.946-33.985L2002.184,1392.378z"/>
			
				<linearGradient id="SVGID_00000079446874377839901810000008318601884799129006_" gradientUnits="userSpaceOnUse" x1="2599.8142" y1="1392.3129" x2="2623.8672" y2="1392.3129" gradientTransform="matrix(-1 0 0 1 4604.2964 0)">
				<stop  offset="0" style="stop-color:#FF928E"/>
				<stop  offset="1" style="stop-color:#FEB3B1"/>
			</linearGradient>
			<path style="fill:url(#SVGID_00000079446874377839901810000008318601884799129006_);" d="M2004.482,1383.05l-2.253,18.99
				c0,0-12.953,6.03-21.8-0.76l5.365-21.162L2004.482,1383.05z"/>
			
				<linearGradient id="SVGID_00000052091438873121516790000012337951499259437451_" gradientUnits="userSpaceOnUse" x1="2572.6375" y1="1483.8329" x2="2589.0535" y2="1043.34" gradientTransform="matrix(-1 0 0 1 4604.2964 0)">
				<stop  offset="0" style="stop-color:#09005D"/>
				<stop  offset="1" style="stop-color:#1A0F91"/>
			</linearGradient>
			<path style="fill:url(#SVGID_00000052091438873121516790000012337951499259437451_);" d="M2002.789,1026.04
				c0.973,4.959,5.224,247.467-20.698,356.143c-0.423,1.773,0.476,3.601,2.164,4.291c3.976,1.624,11.77,3.977,21.111,4.29
				c2.893,0.097,5.486-1.783,6.303-4.56c7.409-25.214,42.916-151.546,47.548-272.227c5.176-134.849,0-4.591,0-4.591l-3.035-83.355
				L2002.789,1026.04z"/>
			
				<linearGradient id="SVGID_00000165206999797768884140000018167438877432708790_" gradientUnits="userSpaceOnUse" x1="2525.8164" y1="1255.3813" x2="2527.7473" y2="1467.7798" gradientTransform="matrix(-1 0 0 1 4604.2964 0)">
				<stop  offset="0" style="stop-color:#4042E2"/>
				<stop  offset="1" style="stop-color:#4F52FF"/>
			</linearGradient>
			<path style="fill:url(#SVGID_00000165206999797768884140000018167438877432708790_);" d="M2087.247,1400.661
				c0,0,4.464,8.015,8.786,29.312c0.78,3.846-1.907,7.528-5.813,7.911c-6.911,0.679-17.549,1.553-26.071,1.495
				c-3.928-0.027-6.994-3.447-6.521-7.347c0.945-7.773,3.885-20.528,12.969-30.468L2087.247,1400.661z"/>
			
				<linearGradient id="SVGID_00000005979023195489033300000005824200335059440290_" gradientUnits="userSpaceOnUse" x1="2513.1289" y1="1391.0793" x2="2533.896" y2="1391.0793" gradientTransform="matrix(-1 0 0 1 4604.2964 0)">
				<stop  offset="0" style="stop-color:#FF928E"/>
				<stop  offset="1" style="stop-color:#FEB3B1"/>
			</linearGradient>
			<path style="fill:url(#SVGID_00000005979023195489033300000005824200335059440290_);" d="M2091.167,1376.236l-5.264,28.718
				c0,0-5.206,3.872-15.503,1.065l2.512-30.898L2091.167,1376.236z"/>
			
				<linearGradient id="SVGID_00000042719134375617737080000007684161461180325532_" gradientUnits="userSpaceOnUse" x1="2532.0376" y1="1482.3199" x2="2548.4539" y2="1041.8281" gradientTransform="matrix(-1 0 0 1 4604.2964 0)">
				<stop  offset="0" style="stop-color:#09005D"/>
				<stop  offset="1" style="stop-color:#1A0F91"/>
			</linearGradient>
			<path style="fill:url(#SVGID_00000042719134375617737080000007684161461180325532_);" d="M2105.389,1033.482
				c21.201,127.949-4.599,316.237-13.3,353.089c-0.532,2.256-2.354,3.985-4.64,4.364c-3.884,0.644-10.278,1.17-16.583-0.662
				c-2.172-0.63-3.698-2.59-3.786-4.85c-1.168-29.794,0.934-212.701-18.821-284.987c-1.001-3.663-3.238-6.858-6.333-9.058
				l-38.342-27.258l-2.939-44.06L2105.389,1033.482z"/>
			<g>
				
					<linearGradient id="SVGID_00000045577302858197306780000008120121398778509188_" gradientUnits="userSpaceOnUse" x1="-1446.9098" y1="833.7651" x2="-1322.0702" y2="1162.1898" gradientTransform="matrix(1 0 0 1 3461.998 0)">
					<stop  offset="0" style="stop-color:#FE7062"/>
					<stop  offset="1" style="stop-color:#FF928E"/>
				</linearGradient>
				<path style="fill:url(#SVGID_00000045577302858197306780000008120121398778509188_);" d="M1967.962,795.875
					c77.412-7.741,135.974,11.851,135.974,11.851c18.939,110.505,3.312,237.966,3.312,237.966
					c-49.188,12.899-104.674-7.887-104.674-7.887c-8.175-46.189-42.24-152.842-42.24-152.842
					c-15.521-1.927-30.088,5.914-26.738-15.633C1936.945,847.783,1958.21,796.85,1967.962,795.875z"/>
			</g>
			
				<linearGradient id="SVGID_00000137824603031139504070000008995491180159607713_" gradientUnits="userSpaceOnUse" x1="-1365.9585" y1="802.7645" x2="-1241.0035" y2="1131.4932" gradientTransform="matrix(1 0 0 1 3461.998 0)">
				<stop  offset="0" style="stop-color:#FE7062"/>
				<stop  offset="1" style="stop-color:#FF928E"/>
			</linearGradient>
			<path style="fill:url(#SVGID_00000137824603031139504070000008995491180159607713_);" d="M2079.566,869.246l24.369-61.52
				c0,0,59.346,40.322,69.105,91.447c-11.213,0.826-36.571,5.245-56.543,15.33C2112.109,890.362,2079.566,869.246,2079.566,869.246z
				"/>
			
				<linearGradient id="SVGID_00000066489997814504274730000008171156923967541935_" gradientUnits="userSpaceOnUse" x1="2124.7937" y1="843.9377" x2="2067.7939" y2="998.9373">
				<stop  offset="0" style="stop-color:#FF928E"/>
				<stop  offset="1" style="stop-color:#FEB3B1"/>
			</linearGradient>
			<path style="fill:url(#SVGID_00000066489997814504274730000008171156923967541935_);" d="M2022.544,927.135
				c0,0,66.63,37.656,89.112,5.502c4.667-6.677,5.783-13.312,4.633-19.638c19.973-10.085,40.377-13.001,51.591-13.827
				c2.942,15.413,1.386,31.805-7.67,48.372c-39.381,72.039-146.484-3.981-146.484-3.981L2022.544,927.135z"/>
			
				<linearGradient id="SVGID_00000121986116299743264270000002154597738290599329_" gradientUnits="userSpaceOnUse" x1="2008.8319" y1="729.4039" x2="2052.3296" y2="928.8939">
				<stop  offset="0" style="stop-color:#FF928E"/>
				<stop  offset="1" style="stop-color:#FEB3B1"/>
			</linearGradient>
			<path style="fill:url(#SVGID_00000121986116299743264270000002154597738290599329_);" d="M2031.84,747.354l20.216,58.463
				c0.335,0.968-0.063,2.041-0.96,2.537c-5.511,3.046-25.365,11.854-49.29-3.316c-2.493-1.58-4.189-4.157-4.568-7.084l-6.547-50.6
				H2031.84z"/>
			<g>
				
					<linearGradient id="SVGID_00000070822268399223092280000002571941166870055815_" gradientUnits="userSpaceOnUse" x1="-2436.0381" y1="410.0931" x2="-2418.0388" y2="306.5982" gradientTransform="matrix(-0.9948 -0.1017 -0.1017 0.9948 -258.3227 1793.8907)">
					<stop  offset="0" style="stop-color:#FF928E"/>
					<stop  offset="1" style="stop-color:#FEB3B1"/>
				</linearGradient>
				<path style="fill:url(#SVGID_00000070822268399223092280000002571941166870055815_);" d="M1971.475,732.885
					c0,0,6.533,46.865,18.739,58.867c12.206,12.002,33.778-5.117,45.193-30.313l-12.87-46.391L1971.475,732.885z"/>
				
					<linearGradient id="SVGID_00000013883144671771597090000002979263461777340294_" gradientUnits="userSpaceOnUse" x1="-2154.3857" y1="-1370.5315" x2="-2135.1672" y2="-1260.9146" gradientTransform="matrix(-0.9948 -0.1017 -0.1017 0.9948 -258.3227 1793.8907)">
					<stop  offset="0" style="stop-color:#09005D"/>
					<stop  offset="1" style="stop-color:#1A0F91"/>
				</linearGradient>
				<path style="fill:url(#SVGID_00000013883144671771597090000002979263461777340294_);" d="M2021.549,744.116
					c-1.045,0.222-2.037-0.534-2.088-1.601c-0.153-3.244-0.704-9.689-2.69-14.243c0,0,1.733-4.411-11.712,1.145
					c-13.445,5.556-33.616,13.675-44.271,6.523c-10.389-6.973-18.508-37.55,9.971-29.128c1.083,0.321,2.189-0.456,2.221-1.585
					c0.138-4.875,1.757-15.958,13.394-18.378c10.891-2.265,16.179,3.088,18.265,6.206c0.614,0.917,1.915,1.032,2.672,0.229
					c3.582-3.802,13.061-11.705,25.125-4.847c9.937,5.65,10.9,12.225,10.32,16.201c-0.188,1.288,1.035,2.3,2.267,1.878
					c3.337-1.142,8.541-1.381,12.822,5.274c5.919,9.199-4.536,15.584-7.644,17.219c-0.51,0.269-0.86,0.763-0.922,1.335
					c-0.479,4.421-3.141,23.645-13.924,33.54c-0.934,0.856-2.453,0.422-2.821-0.79l-5.632-18.502
					c-0.262-0.859-1.137-1.376-2.016-1.188L2021.549,744.116z"/>
				
					<linearGradient id="SVGID_00000036253277671684531440000002990485516101697973_" gradientUnits="userSpaceOnUse" x1="-2460.7349" y1="405.8022" x2="-2442.7358" y2="302.3073" gradientTransform="matrix(-0.9948 -0.1017 -0.1017 0.9948 -258.3227 1793.8907)">
					<stop  offset="0" style="stop-color:#FF928E"/>
					<stop  offset="1" style="stop-color:#FEB3B1"/>
				</linearGradient>
				<path style="fill:url(#SVGID_00000036253277671684531440000002990485516101697973_);" d="M2021.023,747.702
					c0,0,6.44-18.054,12.732-11.335c6.292,6.719-3.768,19.062-11.938,20.776L2021.023,747.702z"/>
			</g>
			<g>
				<path style="fill:#FFFFFF;" d="M1985.922,875.812l-15.034-0.576l13.362-3.834c0.229-0.064-0.15-0.273-0.15-0.51v-1.622
					c0-0.152,0.38-0.298,0.265-0.398c-0.115-0.1-0.044-0.146-0.195-0.127l-84.364,11.09c0,0-14.594-40.28-17.222-44.376
					c-2.628-4.098-8.852-0.207-8.852-0.207l15.046,56.408l99.583-7.226v-6.471C1988.361,876.806,1987.077,875.857,1985.922,875.812z
					"/>
				
					<linearGradient id="SVGID_00000039846188418126661800000016586917842144747156_" gradientUnits="userSpaceOnUse" x1="1974.5067" y1="824.4131" x2="1921.9406" y2="947.7418">
					<stop  offset="0" style="stop-color:#09005D"/>
					<stop  offset="1" style="stop-color:#1A0F91"/>
				</linearGradient>
				<path style="fill:url(#SVGID_00000039846188418126661800000016586917842144747156_);" d="M2015.805,961.021l-23.509-76.946
					c-1.059-3.464-4.354-5.752-7.97-5.534l-90.844,5.506c-1.293,0.078-2.48-0.71-2.911-1.93l-15.716-44.48
					c-0.663-1.876-2.437-3.131-4.427-3.131c-0.878,0-1.705,0.409-2.237,1.106c-0.532,0.698-0.709,1.604-0.478,2.451l12.845,47.048
					c0.73,2.674,1.68,5.281,2.84,7.797l34.667,75.475c0.863,1.872,2.737,3.377,4.799,3.377h85.445c2.484,0,4.822-1.483,6.3-3.48
					C2016.088,966.281,2016.532,963.397,2015.805,961.021z"/>
				<path style="fill:#91B3FA;" d="M1970.698,911.155l-18.187,1.679l-4.869-13.271c-0.267-0.728-1.478-1.168-2.694-0.984
					l-5.709,0.866c-1.15,0.174-1.857,0.881-1.587,1.578l4.911,12.728l-15.389,1.421c-0.993,0.092-1.582,0.665-1.324,1.28
					l1.236,2.951c0.254,0.607,1.258,1.043,2.25,0.974l15.372-1.068l12.536,32.492c0.221,0.574,1.307,1.094,2.434,1.162l5.577,0.338
					c1.184,0.072,1.975-0.351,1.757-0.945l-12.377-33.737l18.127-1.259c1.403-0.097,2.356-0.772,2.115-1.508l-1.173-3.582
					C1973.459,911.526,1972.107,911.024,1970.698,911.155z"/>
			</g>
			
				<linearGradient id="SVGID_00000014621813342006349510000012807326374850153615_" gradientUnits="userSpaceOnUse" x1="2020.4957" y1="798.7123" x2="2008.4957" y2="871.7123">
				<stop  offset="0" style="stop-color:#FF928E"/>
				<stop  offset="1" style="stop-color:#FEB3B1"/>
			</linearGradient>
			<path style="fill:url(#SVGID_00000014621813342006349510000012807326374850153615_);" d="M2021.764,944.092
				c0,0,5.065-20.829,3.022-28.219c-2.043-7.39-6.003-16.891-19.199-14.78c-13.196,2.112-28.763,7.67-28.763,7.67
				s0.787,9.626,10.816,6.52l-6.219,4.812c0,0,0.889,7.707,9.361,3.59l-5.785,6.382c0,0,3.638,6.33,9.871,2.27
				C2001.101,928.278,2004.089,946.601,2021.764,944.092z"/>
		</g>
	</g>
</g>
</svg>
